<svg xmlns="http://www.w3.org/2000/svg" xmlns:xlink="http://www.w3.org/1999/xlink" width="400" zoomAndPan="magnify" viewBox="0 0 300 112.499997" height="150" preserveAspectRatio="xMidYMid meet" version="1.0"><defs><g/><clipPath id="c7e25e37cc"><path d="M 0.664062 14 L 295 14 L 295 98 L 0.664062 98 Z M 0.664062 14 " clip-rule="nonzero"/></clipPath><clipPath id="d97c4d1b4d"><path d="M 7.738281 0.238281 L 22.652344 0.238281 L 22.652344 15.148438 L 7.738281 15.148438 Z M 7.738281 0.238281 " clip-rule="nonzero"/></clipPath><clipPath id="24ccd47430"><path d="M 15.195312 0.238281 C 11.078125 0.238281 7.738281 3.574219 7.738281 7.691406 C 7.738281 11.808594 11.078125 15.148438 15.195312 15.148438 C 19.3125 15.148438 22.652344 11.808594 22.652344 7.691406 C 22.652344 3.574219 19.3125 0.238281 15.195312 0.238281 Z M 15.195312 0.238281 " clip-rule="nonzero"/></clipPath><clipPath id="12ce3ccd31"><path d="M 0.738281 0.238281 L 15.652344 0.238281 L 15.652344 15.148438 L 0.738281 15.148438 Z M 0.738281 0.238281 " clip-rule="nonzero"/></clipPath><clipPath id="c20fc5f032"><path d="M 8.195312 0.238281 C 4.078125 0.238281 0.738281 3.574219 0.738281 7.691406 C 0.738281 11.808594 4.078125 15.148438 8.195312 15.148438 C 12.3125 15.148438 15.652344 11.808594 15.652344 7.691406 C 15.652344 3.574219 12.3125 0.238281 8.195312 0.238281 Z M 8.195312 0.238281 " clip-rule="nonzero"/></clipPath><clipPath id="f631b8ad66"><rect x="0" width="16" y="0" height="16"/></clipPath><clipPath id="dd76ba38d6"><path d="M 22.652344 0.238281 L 37.5625 0.238281 L 37.5625 15.148438 L 22.652344 15.148438 Z M 22.652344 0.238281 " clip-rule="nonzero"/></clipPath><clipPath id="5347ad79e4"><path d="M 30.105469 0.238281 C 25.988281 0.238281 22.652344 3.574219 22.652344 7.691406 C 22.652344 11.808594 25.988281 15.148438 30.105469 15.148438 C 34.226562 15.148438 37.5625 11.808594 37.5625 7.691406 C 37.5625 3.574219 34.226562 0.238281 30.105469 0.238281 Z M 30.105469 0.238281 " clip-rule="nonzero"/></clipPath><clipPath id="2dcc2f721c"><path d="M 0.652344 0.238281 L 15.5625 0.238281 L 15.5625 15.148438 L 0.652344 15.148438 Z M 0.652344 0.238281 " clip-rule="nonzero"/></clipPath><clipPath id="200392f6bb"><path d="M 8.105469 0.238281 C 3.988281 0.238281 0.652344 3.574219 0.652344 7.691406 C 0.652344 11.808594 3.988281 15.148438 8.105469 15.148438 C 12.226562 15.148438 15.5625 11.808594 15.5625 7.691406 C 15.5625 3.574219 12.226562 0.238281 8.105469 0.238281 Z M 8.105469 0.238281 " clip-rule="nonzero"/></clipPath><clipPath id="354f698512"><rect x="0" width="16" y="0" height="16"/></clipPath><clipPath id="4248096b22"><rect x="0" width="295" y="0" height="84"/></clipPath></defs><g clip-path="url(#c7e25e37cc)"><g transform="matrix(1, 0, 0, 1, 0, 14)"><g clip-path="url(#4248096b22)"><g fill="#000000" fill-opacity="1"><g transform="translate(1.330919, 55.979816)"><g><path d="M 39.625 -8.875 C 40.132812 -7.695312 40.664062 -6.519531 41.21875 -5.34375 C 41.769531 -4.164062 42.285156 -2.988281 42.765625 -1.8125 C 43.023438 -1.226562 43.125 -0.804688 43.0625 -0.546875 C 43.007812 -0.296875 42.65625 -0.148438 42 -0.109375 C 41 -0.078125 39.992188 -0.0625 38.984375 -0.0625 C 37.972656 -0.0625 36.957031 -0.113281 35.9375 -0.21875 C 35.164062 -0.289062 34.503906 -0.648438 33.953125 -1.296875 C 33.398438 -1.941406 33.03125 -2.628906 32.84375 -3.359375 C 32.582031 -4.316406 32.222656 -5.253906 31.765625 -6.171875 C 31.304688 -7.085938 30.65625 -7.820312 29.8125 -8.375 C 29.113281 -8.851562 28.425781 -9.109375 27.75 -9.140625 C 27.070312 -9.179688 26.347656 -9.203125 25.578125 -9.203125 C 24.691406 -9.160156 23.804688 -9.148438 22.921875 -9.171875 C 22.046875 -9.191406 21.144531 -9.222656 20.21875 -9.265625 C 19.15625 -9.335938 18.117188 -9.34375 17.109375 -9.28125 C 16.097656 -9.226562 15.097656 -8.945312 14.109375 -8.4375 C 12.859375 -7.8125 11.835938 -6.9375 11.046875 -5.8125 C 10.253906 -4.695312 9.710938 -3.457031 9.421875 -2.09375 C 9.347656 -1.65625 9.203125 -1.25 8.984375 -0.875 C 8.765625 -0.507812 8.394531 -0.3125 7.875 -0.28125 C 7.726562 -0.28125 7.234375 -0.25 6.390625 -0.1875 C 5.546875 -0.132812 4.617188 -0.0976562 3.609375 -0.078125 C 2.597656 -0.0664062 1.734375 -0.113281 1.015625 -0.21875 C 0.296875 -0.332031 -0.0195312 -0.515625 0.0625 -0.765625 C 0.132812 -0.953125 0.1875 -1.117188 0.21875 -1.265625 C 0.257812 -1.410156 0.296875 -1.554688 0.328125 -1.703125 C 0.847656 -3.210938 1.472656 -4.675781 2.203125 -6.09375 C 2.941406 -7.507812 3.625 -8.953125 4.25 -10.421875 C 4.945312 -11.992188 5.632812 -13.570312 6.3125 -15.15625 C 6.988281 -16.738281 7.675781 -18.316406 8.375 -19.890625 C 9.769531 -23.054688 11.144531 -26.21875 12.5 -29.375 C 13.863281 -32.53125 15.191406 -35.691406 16.484375 -38.859375 C 16.804688 -39.628906 17.171875 -40.160156 17.578125 -40.453125 C 17.984375 -40.742188 18.550781 -40.890625 19.28125 -40.890625 L 19.40625 -40.890625 C 20.101562 -40.859375 20.789062 -40.859375 21.46875 -40.890625 C 22.144531 -40.929688 22.832031 -40.929688 23.53125 -40.890625 C 24.519531 -40.816406 25.242188 -40.53125 25.703125 -40.03125 C 26.160156 -39.539062 26.578125 -38.890625 26.953125 -38.078125 C 27.390625 -37.085938 27.828125 -36.101562 28.265625 -35.125 C 28.710938 -34.15625 29.15625 -33.175781 29.59375 -32.1875 C 30.4375 -30.238281 31.296875 -28.28125 32.171875 -26.3125 C 33.054688 -24.34375 33.925781 -22.390625 34.78125 -20.453125 C 34.851562 -20.335938 35.132812 -19.679688 35.625 -18.484375 C 36.125 -17.296875 36.726562 -15.835938 37.4375 -14.109375 C 38.15625 -12.378906 38.882812 -10.632812 39.625 -8.875 Z M 25.125 -16.59375 C 25.75 -16.625 26.265625 -16.640625 26.671875 -16.640625 C 27.078125 -16.640625 27.148438 -17.007812 26.890625 -17.75 C 26.742188 -18.332031 26.515625 -18.890625 26.203125 -19.421875 C 25.890625 -19.953125 25.585938 -20.492188 25.296875 -21.046875 C 24.890625 -21.785156 24.53125 -22.566406 24.21875 -23.390625 C 23.90625 -24.222656 23.566406 -25.039062 23.203125 -25.84375 C 23.015625 -26.25 22.847656 -26.671875 22.703125 -27.109375 C 22.554688 -27.554688 22.390625 -27.960938 22.203125 -28.328125 C 21.953125 -28.953125 21.742188 -29.253906 21.578125 -29.234375 C 21.410156 -29.210938 21.195312 -28.890625 20.9375 -28.265625 C 20.53125 -27.347656 20.132812 -26.410156 19.75 -25.453125 C 19.363281 -24.503906 18.972656 -23.550781 18.578125 -22.59375 C 18.203125 -21.75 17.757812 -20.929688 17.25 -20.140625 C 16.738281 -19.347656 16.351562 -18.492188 16.09375 -17.578125 C 16.019531 -17.316406 16.019531 -17.097656 16.09375 -16.921875 C 16.195312 -16.554688 16.550781 -16.410156 17.15625 -16.484375 C 17.769531 -16.554688 18.207031 -16.59375 18.46875 -16.59375 C 19.5625 -16.59375 20.660156 -16.59375 21.765625 -16.59375 C 22.867188 -16.59375 23.988281 -16.59375 25.125 -16.59375 Z M 25.125 -16.59375 "/></g></g></g><g fill="#000000" fill-opacity="1"><g transform="translate(44.536716, 55.979816)"><g><path d="M 27.78125 -1.375 C 25.28125 -4.53125 22.804688 -7.707031 20.359375 -10.90625 C 17.921875 -14.101562 15.453125 -17.265625 12.953125 -20.390625 C 12.765625 -20.609375 12.429688 -20.9375 11.953125 -21.375 C 11.484375 -21.820312 10.976562 -22.203125 10.4375 -22.515625 C 9.90625 -22.828125 9.445312 -22.945312 9.0625 -22.875 C 8.675781 -22.800781 8.484375 -22.378906 8.484375 -21.609375 C 8.484375 -18.703125 8.535156 -15.816406 8.640625 -12.953125 C 8.753906 -10.085938 8.738281 -7.203125 8.59375 -4.296875 C 8.5625 -3.785156 8.546875 -3.242188 8.546875 -2.671875 C 8.546875 -2.097656 8.472656 -1.554688 8.328125 -1.046875 C 8.210938 -0.566406 8.050781 -0.300781 7.84375 -0.25 C 7.644531 -0.195312 7.269531 -0.171875 6.71875 -0.171875 C 5.726562 -0.203125 4.726562 -0.21875 3.71875 -0.21875 C 2.707031 -0.21875 1.6875 -0.21875 0.65625 -0.21875 C 0.4375 -0.21875 0.28125 -0.628906 0.1875 -1.453125 C 0.101562 -2.285156 0.0625 -3.316406 0.0625 -4.546875 C 0.0625 -5.773438 0.0664062 -7.03125 0.078125 -8.3125 C 0.0976562 -9.601562 0.125 -10.734375 0.15625 -11.703125 C 0.195312 -12.679688 0.21875 -13.316406 0.21875 -13.609375 C 0.21875 -17.648438 0.207031 -21.703125 0.1875 -25.765625 C 0.175781 -29.828125 0.1875 -33.878906 0.21875 -37.921875 C 0.21875 -38.460938 0.253906 -38.984375 0.328125 -39.484375 C 0.398438 -39.984375 0.734375 -40.359375 1.328125 -40.609375 C 1.910156 -40.835938 2.5625 -40.941406 3.28125 -40.921875 C 4 -40.898438 4.648438 -40.832031 5.234375 -40.71875 C 6.597656 -40.46875 7.8125 -39.921875 8.875 -39.078125 C 9.9375 -38.234375 10.835938 -37.273438 11.578125 -36.203125 C 12.671875 -34.628906 13.796875 -33.0625 14.953125 -31.5 C 16.117188 -29.9375 17.289062 -28.382812 18.46875 -26.84375 C 19.53125 -25.476562 20.582031 -24.03125 21.625 -22.5 C 22.675781 -20.976562 23.828125 -19.632812 25.078125 -18.46875 C 25.441406 -18.09375 25.84375 -17.851562 26.28125 -17.75 C 26.875 -17.601562 27.367188 -17.726562 27.765625 -18.125 C 28.171875 -18.53125 28.453125 -18.992188 28.609375 -19.515625 C 28.710938 -19.878906 28.773438 -20.257812 28.796875 -20.65625 C 28.816406 -21.0625 28.828125 -21.453125 28.828125 -21.828125 C 28.753906 -24.617188 28.6875 -27.390625 28.625 -30.140625 C 28.570312 -32.898438 28.675781 -35.65625 28.9375 -38.40625 C 29.039062 -39.320312 29.359375 -39.957031 29.890625 -40.3125 C 30.429688 -40.664062 31.085938 -40.847656 31.859375 -40.859375 C 32.628906 -40.878906 33.40625 -40.820312 34.1875 -40.6875 C 34.976562 -40.5625 35.6875 -40.484375 36.3125 -40.453125 C 36.570312 -40.453125 36.8125 -40.394531 37.03125 -40.28125 C 37.320312 -40.101562 37.484375 -39.78125 37.515625 -39.3125 C 37.554688 -38.851562 37.550781 -38.375 37.5 -37.875 C 37.445312 -37.382812 37.398438 -36.992188 37.359375 -36.703125 C 37.359375 -35.960938 37.359375 -35.21875 37.359375 -34.46875 C 37.359375 -33.71875 37.359375 -32.972656 37.359375 -32.234375 C 37.328125 -30.765625 37.3125 -29.296875 37.3125 -27.828125 C 37.3125 -26.359375 37.3125 -24.867188 37.3125 -23.359375 C 37.3125 -20.492188 37.3125 -17.609375 37.3125 -14.703125 C 37.3125 -11.804688 37.3125 -8.941406 37.3125 -6.109375 C 37.3125 -5.304688 37.335938 -4.453125 37.390625 -3.546875 C 37.441406 -2.648438 37.414062 -1.796875 37.3125 -0.984375 C 37.195312 -0.367188 36.960938 -0.0664062 36.609375 -0.078125 C 36.265625 -0.0976562 35.835938 -0.109375 35.328125 -0.109375 C 34.628906 -0.109375 33.921875 -0.109375 33.203125 -0.109375 C 32.484375 -0.109375 31.757812 -0.109375 31.03125 -0.109375 C 30.289062 -0.109375 29.679688 -0.171875 29.203125 -0.296875 C 28.722656 -0.429688 28.25 -0.789062 27.78125 -1.375 Z M 27.78125 -1.375 "/></g></g></g><g fill="#000000" fill-opacity="1"><g transform="translate(82.231463, 55.979816)"><g><path d="M 39.625 -8.875 C 40.132812 -7.695312 40.664062 -6.519531 41.21875 -5.34375 C 41.769531 -4.164062 42.285156 -2.988281 42.765625 -1.8125 C 43.023438 -1.226562 43.125 -0.804688 43.0625 -0.546875 C 43.007812 -0.296875 42.65625 -0.148438 42 -0.109375 C 41 -0.078125 39.992188 -0.0625 38.984375 -0.0625 C 37.972656 -0.0625 36.957031 -0.113281 35.9375 -0.21875 C 35.164062 -0.289062 34.503906 -0.648438 33.953125 -1.296875 C 33.398438 -1.941406 33.03125 -2.628906 32.84375 -3.359375 C 32.582031 -4.316406 32.222656 -5.253906 31.765625 -6.171875 C 31.304688 -7.085938 30.65625 -7.820312 29.8125 -8.375 C 29.113281 -8.851562 28.425781 -9.109375 27.75 -9.140625 C 27.070312 -9.179688 26.347656 -9.203125 25.578125 -9.203125 C 24.691406 -9.160156 23.804688 -9.148438 22.921875 -9.171875 C 22.046875 -9.191406 21.144531 -9.222656 20.21875 -9.265625 C 19.15625 -9.335938 18.117188 -9.34375 17.109375 -9.28125 C 16.097656 -9.226562 15.097656 -8.945312 14.109375 -8.4375 C 12.859375 -7.8125 11.835938 -6.9375 11.046875 -5.8125 C 10.253906 -4.695312 9.710938 -3.457031 9.421875 -2.09375 C 9.347656 -1.65625 9.203125 -1.25 8.984375 -0.875 C 8.765625 -0.507812 8.394531 -0.3125 7.875 -0.28125 C 7.726562 -0.28125 7.234375 -0.25 6.390625 -0.1875 C 5.546875 -0.132812 4.617188 -0.0976562 3.609375 -0.078125 C 2.597656 -0.0664062 1.734375 -0.113281 1.015625 -0.21875 C 0.296875 -0.332031 -0.0195312 -0.515625 0.0625 -0.765625 C 0.132812 -0.953125 0.1875 -1.117188 0.21875 -1.265625 C 0.257812 -1.410156 0.296875 -1.554688 0.328125 -1.703125 C 0.847656 -3.210938 1.472656 -4.675781 2.203125 -6.09375 C 2.941406 -7.507812 3.625 -8.953125 4.25 -10.421875 C 4.945312 -11.992188 5.632812 -13.570312 6.3125 -15.15625 C 6.988281 -16.738281 7.675781 -18.316406 8.375 -19.890625 C 9.769531 -23.054688 11.144531 -26.21875 12.5 -29.375 C 13.863281 -32.53125 15.191406 -35.691406 16.484375 -38.859375 C 16.804688 -39.628906 17.171875 -40.160156 17.578125 -40.453125 C 17.984375 -40.742188 18.550781 -40.890625 19.28125 -40.890625 L 19.40625 -40.890625 C 20.101562 -40.859375 20.789062 -40.859375 21.46875 -40.890625 C 22.144531 -40.929688 22.832031 -40.929688 23.53125 -40.890625 C 24.519531 -40.816406 25.242188 -40.53125 25.703125 -40.03125 C 26.160156 -39.539062 26.578125 -38.890625 26.953125 -38.078125 C 27.390625 -37.085938 27.828125 -36.101562 28.265625 -35.125 C 28.710938 -34.15625 29.15625 -33.175781 29.59375 -32.1875 C 30.4375 -30.238281 31.296875 -28.28125 32.171875 -26.3125 C 33.054688 -24.34375 33.925781 -22.390625 34.78125 -20.453125 C 34.851562 -20.335938 35.132812 -19.679688 35.625 -18.484375 C 36.125 -17.296875 36.726562 -15.835938 37.4375 -14.109375 C 38.15625 -12.378906 38.882812 -10.632812 39.625 -8.875 Z M 25.125 -16.59375 C 25.75 -16.625 26.265625 -16.640625 26.671875 -16.640625 C 27.078125 -16.640625 27.148438 -17.007812 26.890625 -17.75 C 26.742188 -18.332031 26.515625 -18.890625 26.203125 -19.421875 C 25.890625 -19.953125 25.585938 -20.492188 25.296875 -21.046875 C 24.890625 -21.785156 24.53125 -22.566406 24.21875 -23.390625 C 23.90625 -24.222656 23.566406 -25.039062 23.203125 -25.84375 C 23.015625 -26.25 22.847656 -26.671875 22.703125 -27.109375 C 22.554688 -27.554688 22.390625 -27.960938 22.203125 -28.328125 C 21.953125 -28.953125 21.742188 -29.253906 21.578125 -29.234375 C 21.410156 -29.210938 21.195312 -28.890625 20.9375 -28.265625 C 20.53125 -27.347656 20.132812 -26.410156 19.75 -25.453125 C 19.363281 -24.503906 18.972656 -23.550781 18.578125 -22.59375 C 18.203125 -21.75 17.757812 -20.929688 17.25 -20.140625 C 16.738281 -19.347656 16.351562 -18.492188 16.09375 -17.578125 C 16.019531 -17.316406 16.019531 -17.097656 16.09375 -16.921875 C 16.195312 -16.554688 16.550781 -16.410156 17.15625 -16.484375 C 17.769531 -16.554688 18.207031 -16.59375 18.46875 -16.59375 C 19.5625 -16.59375 20.660156 -16.59375 21.765625 -16.59375 C 22.867188 -16.59375 23.988281 -16.59375 25.125 -16.59375 Z M 25.125 -16.59375 "/></g></g></g><g fill="#000000" fill-opacity="1"><g transform="translate(125.43726, 55.979816)"><g><path d="M 7.390625 -40.5 C 7.460938 -40.46875 7.523438 -40.453125 7.578125 -40.453125 C 7.628906 -40.453125 7.675781 -40.429688 7.71875 -40.390625 C 8.007812 -40.242188 8.179688 -40.003906 8.234375 -39.671875 C 8.296875 -39.347656 8.304688 -39.019531 8.265625 -38.6875 C 8.265625 -35.78125 8.265625 -32.867188 8.265625 -29.953125 C 8.265625 -27.035156 8.265625 -24.101562 8.265625 -21.15625 C 8.265625 -19.726562 8.265625 -18.296875 8.265625 -16.859375 C 8.265625 -15.429688 8.265625 -14 8.265625 -12.5625 C 8.265625 -11.789062 8.242188 -11.023438 8.203125 -10.265625 C 8.171875 -9.515625 8.316406 -8.890625 8.640625 -8.390625 C 8.972656 -7.898438 9.65625 -7.65625 10.6875 -7.65625 C 12.5625 -7.726562 14.4375 -7.765625 16.3125 -7.765625 C 18.1875 -7.765625 20.0625 -7.765625 21.9375 -7.765625 C 22.34375 -7.765625 22.828125 -7.789062 23.390625 -7.84375 C 23.960938 -7.90625 24.429688 -7.863281 24.796875 -7.71875 C 25.234375 -7.570312 25.523438 -7.222656 25.671875 -6.671875 C 25.828125 -6.117188 25.894531 -5.472656 25.875 -4.734375 C 25.851562 -4.003906 25.804688 -3.304688 25.734375 -2.640625 C 25.660156 -1.984375 25.609375 -1.488281 25.578125 -1.15625 C 25.535156 -1.082031 25.515625 -1.007812 25.515625 -0.9375 C 25.515625 -0.863281 25.476562 -0.789062 25.40625 -0.71875 C 25.332031 -0.644531 25.203125 -0.570312 25.015625 -0.5 C 23.660156 -0.0507812 22.191406 0.0976562 20.609375 -0.046875 C 19.023438 -0.203125 17.535156 -0.296875 16.140625 -0.328125 C 14.421875 -0.328125 12.6875 -0.351562 10.9375 -0.40625 C 9.195312 -0.46875 7.460938 -0.5 5.734375 -0.5 C 5.210938 -0.5 4.53125 -0.460938 3.6875 -0.390625 C 2.84375 -0.316406 2.082031 -0.351562 1.40625 -0.5 C 0.726562 -0.644531 0.332031 -1.066406 0.21875 -1.765625 C 0.113281 -2.648438 0.0625 -3.550781 0.0625 -4.46875 C 0.0625 -5.382812 0.0625 -6.285156 0.0625 -7.171875 C 0.0195312 -9.003906 0.015625 -10.8125 0.046875 -12.59375 C 0.0859375 -14.375 0.09375 -16.164062 0.0625 -17.96875 C 0.0625 -20.9375 0.0625 -23.898438 0.0625 -26.859375 C 0.0625 -29.816406 0.0976562 -32.785156 0.171875 -35.765625 C 0.171875 -36.390625 0.125 -37.113281 0.03125 -37.9375 C -0.0625 -38.769531 0.0546875 -39.460938 0.390625 -40.015625 C 0.710938 -40.566406 1.257812 -40.867188 2.03125 -40.921875 C 2.8125 -40.972656 3.625 -40.941406 4.46875 -40.828125 C 5.3125 -40.722656 5.988281 -40.648438 6.5 -40.609375 C 6.644531 -40.609375 6.789062 -40.597656 6.9375 -40.578125 C 7.09375 -40.566406 7.242188 -40.539062 7.390625 -40.5 Z M 7.390625 -40.5 "/></g></g></g><g fill="#000000" fill-opacity="1"><g transform="translate(151.448609, 55.979816)"><g><path d="M 28.765625 -27.890625 C 28.617188 -27.585938 28.460938 -27.28125 28.296875 -26.96875 C 28.128906 -26.65625 27.957031 -26.351562 27.78125 -26.0625 C 26.75 -24.332031 25.660156 -22.578125 24.515625 -20.796875 C 23.378906 -19.015625 22.59375 -17.113281 22.15625 -15.09375 C 21.75 -13.226562 21.609375 -11.328125 21.734375 -9.390625 C 21.867188 -7.460938 21.972656 -5.523438 22.046875 -3.578125 C 22.078125 -3.097656 22.070312 -2.484375 22.03125 -1.734375 C 22 -0.984375 21.707031 -0.5 21.15625 -0.28125 C 20.71875 -0.09375 20.160156 -0.0078125 19.484375 -0.03125 C 18.804688 -0.0507812 18.117188 -0.101562 17.421875 -0.1875 C 16.722656 -0.28125 16.132812 -0.328125 15.65625 -0.328125 C 15.394531 -0.328125 15.050781 -0.328125 14.625 -0.328125 C 14.207031 -0.328125 13.890625 -0.421875 13.671875 -0.609375 C 13.410156 -0.859375 13.28125 -1.359375 13.28125 -2.109375 C 13.28125 -2.867188 13.28125 -3.414062 13.28125 -3.75 C 13.238281 -4.925781 13.238281 -6.082031 13.28125 -7.21875 C 13.320312 -8.351562 13.378906 -9.492188 13.453125 -10.640625 C 13.628906 -12.878906 13.378906 -14.878906 12.703125 -16.640625 C 12.023438 -18.398438 11.316406 -19.925781 10.578125 -21.21875 C 9.472656 -23.675781 8.148438 -26.070312 6.609375 -28.40625 C 5.066406 -30.738281 3.632812 -33.082031 2.3125 -35.4375 C 2.164062 -35.726562 1.890625 -36.128906 1.484375 -36.640625 C 1.078125 -37.160156 0.71875 -37.6875 0.40625 -38.21875 C 0.09375 -38.75 -0.0351562 -39.21875 0.015625 -39.625 C 0.078125 -40.03125 0.457031 -40.269531 1.15625 -40.34375 C 2.882812 -40.519531 4.570312 -40.414062 6.21875 -40.03125 C 7.875 -39.644531 9.273438 -38.753906 10.421875 -37.359375 C 11.046875 -36.585938 11.515625 -35.75 11.828125 -34.84375 C 12.140625 -33.945312 12.53125 -33.078125 13 -32.234375 C 14 -30.328125 15.234375 -28.492188 16.703125 -26.734375 C 16.847656 -26.546875 17.007812 -26.394531 17.1875 -26.28125 C 17.488281 -26.132812 17.773438 -26.15625 18.046875 -26.34375 C 18.328125 -26.53125 18.578125 -26.734375 18.796875 -26.953125 C 19.640625 -27.898438 20.34375 -28.925781 20.90625 -30.03125 C 21.476562 -31.132812 22.0625 -32.253906 22.65625 -33.390625 C 23.195312 -34.492188 23.816406 -35.578125 24.515625 -36.640625 C 25.222656 -37.710938 26.070312 -38.613281 27.0625 -39.34375 C 28.09375 -40.113281 29.257812 -40.617188 30.5625 -40.859375 C 31.863281 -41.097656 33.046875 -40.90625 34.109375 -40.28125 C 34.222656 -40.207031 34.332031 -40.132812 34.4375 -40.0625 C 34.550781 -39.988281 34.644531 -39.894531 34.71875 -39.78125 C 34.863281 -39.53125 34.890625 -39.253906 34.796875 -38.953125 C 34.703125 -38.660156 34.582031 -38.367188 34.4375 -38.078125 C 33.519531 -36.390625 32.582031 -34.695312 31.625 -33 C 30.675781 -31.3125 29.722656 -29.609375 28.765625 -27.890625 Z M 28.765625 -27.890625 "/></g></g></g><g fill="#000000" fill-opacity="1"><g transform="translate(186.442946, 55.979816)"><g><path d="M 31.40625 -34 C 31.039062 -33.632812 30.523438 -33.5 29.859375 -33.59375 C 29.203125 -33.6875 28.617188 -33.734375 28.109375 -33.734375 C 27.035156 -33.734375 25.96875 -33.734375 24.90625 -33.734375 C 23.84375 -33.734375 22.78125 -33.734375 21.71875 -33.734375 C 21.195312 -33.734375 20.832031 -33.554688 20.625 -33.203125 C 20.425781 -32.859375 20.316406 -32.445312 20.296875 -31.96875 C 20.285156 -31.488281 20.28125 -31.066406 20.28125 -30.703125 C 20.28125 -25.847656 20.28125 -21.003906 20.28125 -16.171875 C 20.28125 -11.335938 20.296875 -6.5 20.328125 -1.65625 C 20.328125 -1.0625 20.171875 -0.671875 19.859375 -0.484375 C 19.554688 -0.304688 19.128906 -0.238281 18.578125 -0.28125 C 17.984375 -0.3125 17.382812 -0.335938 16.78125 -0.359375 C 16.175781 -0.378906 15.5625 -0.367188 14.9375 -0.328125 C 14.53125 -0.328125 14.050781 -0.242188 13.5 -0.078125 C 12.945312 0.0859375 12.488281 0.00390625 12.125 -0.328125 C 11.832031 -0.617188 11.6875 -1.09375 11.6875 -1.75 C 11.6875 -2.414062 11.6875 -2.9375 11.6875 -3.3125 C 11.6875 -6.03125 11.691406 -8.75 11.703125 -11.46875 C 11.722656 -14.1875 11.734375 -16.882812 11.734375 -19.5625 C 11.734375 -20.957031 11.734375 -22.34375 11.734375 -23.71875 C 11.734375 -25.101562 11.71875 -26.472656 11.6875 -27.828125 C 11.6875 -28.191406 11.722656 -28.6875 11.796875 -29.3125 C 11.867188 -29.9375 11.894531 -30.570312 11.875 -31.21875 C 11.851562 -31.863281 11.734375 -32.414062 11.515625 -32.875 C 11.296875 -33.332031 10.894531 -33.5625 10.3125 -33.5625 C 8.832031 -33.5625 7.367188 -33.550781 5.921875 -33.53125 C 4.472656 -33.507812 3.015625 -33.484375 1.546875 -33.453125 C 1.359375 -33.453125 1.15625 -33.457031 0.9375 -33.46875 C 0.71875 -33.488281 0.535156 -33.578125 0.390625 -33.734375 C 0.242188 -33.878906 0.148438 -34.050781 0.109375 -34.25 C 0.078125 -34.445312 0.0625 -34.640625 0.0625 -34.828125 C 0.0195312 -35.671875 0 -36.503906 0 -37.328125 C 0 -38.160156 0 -38.976562 0 -39.78125 C 0 -39.9375 0.0078125 -40.085938 0.03125 -40.234375 C 0.0507812 -40.378906 0.113281 -40.503906 0.21875 -40.609375 C 0.363281 -40.765625 0.523438 -40.859375 0.703125 -40.890625 C 0.890625 -40.929688 1.078125 -40.953125 1.265625 -40.953125 C 6.078125 -40.835938 10.867188 -40.78125 15.640625 -40.78125 C 20.421875 -40.78125 25.203125 -40.816406 29.984375 -40.890625 C 30.234375 -40.890625 30.488281 -40.878906 30.75 -40.859375 C 31.007812 -40.847656 31.226562 -40.75 31.40625 -40.5625 C 31.59375 -40.375 31.710938 -40.140625 31.765625 -39.859375 C 31.828125 -39.585938 31.875 -39.328125 31.90625 -39.078125 C 31.90625 -38.628906 31.914062 -38.1875 31.9375 -37.75 C 31.957031 -37.3125 31.96875 -36.867188 31.96875 -36.421875 C 32 -36.054688 32.003906 -35.695312 31.984375 -35.34375 C 31.972656 -35 31.875 -34.679688 31.6875 -34.390625 C 31.644531 -34.273438 31.550781 -34.144531 31.40625 -34 Z M 31.40625 -34 "/></g></g></g><g fill="#000000" fill-opacity="1"><g transform="translate(218.571554, 55.979816)"><g><path d="M 1.875 -40.890625 C 1.90625 -40.890625 1.9375 -40.890625 1.96875 -40.890625 C 2.007812 -40.890625 2.050781 -40.890625 2.09375 -40.890625 C 3.007812 -40.890625 3.90625 -40.878906 4.78125 -40.859375 C 5.664062 -40.847656 6.570312 -40.820312 7.5 -40.78125 C 8.15625 -40.738281 8.484375 -40.476562 8.484375 -40 C 8.484375 -39.53125 8.484375 -39.035156 8.484375 -38.515625 C 8.484375 -35.359375 8.484375 -32.179688 8.484375 -28.984375 C 8.484375 -25.785156 8.484375 -22.609375 8.484375 -19.453125 C 8.484375 -17.941406 8.472656 -16.425781 8.453125 -14.90625 C 8.441406 -13.382812 8.4375 -11.867188 8.4375 -10.359375 C 8.4375 -8.960938 8.515625 -7.554688 8.671875 -6.140625 C 8.835938 -4.722656 8.832031 -3.300781 8.65625 -1.875 C 8.539062 -1.175781 8.300781 -0.722656 7.9375 -0.515625 C 7.570312 -0.316406 7.039062 -0.179688 6.34375 -0.109375 C 6.007812 -0.078125 5.5 -0.0507812 4.8125 -0.03125 C 4.132812 -0.0078125 3.425781 -0.046875 2.6875 -0.140625 C 1.957031 -0.234375 1.328125 -0.414062 0.796875 -0.6875 C 0.265625 -0.96875 0 -1.363281 0 -1.875 C 0 -8.039062 0.0078125 -14.210938 0.03125 -20.390625 C 0.0507812 -26.566406 0.0390625 -32.738281 0 -38.90625 C 0 -39.644531 0.132812 -40.148438 0.40625 -40.421875 C 0.6875 -40.703125 1.175781 -40.859375 1.875 -40.890625 Z M 1.875 -40.890625 "/></g></g></g><g fill="#000000" fill-opacity="1"><g transform="translate(227.498685, 55.979816)"><g><path d="M 23.640625 -1.984375 C 23.128906 -2.609375 22.660156 -3.269531 22.234375 -3.96875 C 21.816406 -4.664062 21.367188 -5.34375 20.890625 -6 C 19.859375 -7.394531 18.828125 -8.789062 17.796875 -10.1875 C 16.765625 -11.59375 15.738281 -12.972656 14.71875 -14.328125 C 14.195312 -15.066406 13.660156 -15.4375 13.109375 -15.4375 C 12.566406 -15.4375 12.046875 -15.210938 11.546875 -14.765625 C 11.046875 -14.328125 10.613281 -13.796875 10.25 -13.171875 C 9.882812 -12.546875 9.59375 -11.957031 9.375 -11.40625 C 8.894531 -10.226562 8.625 -8.988281 8.5625 -7.6875 C 8.507812 -6.382812 8.539062 -5.109375 8.65625 -3.859375 C 8.726562 -3.160156 8.726562 -2.453125 8.65625 -1.734375 C 8.582031 -1.015625 8.101562 -0.617188 7.21875 -0.546875 C 6.8125 -0.546875 6.390625 -0.554688 5.953125 -0.578125 C 5.515625 -0.597656 5.09375 -0.609375 4.6875 -0.609375 C 4.132812 -0.609375 3.5 -0.5625 2.78125 -0.46875 C 2.0625 -0.375 1.445312 -0.398438 0.9375 -0.546875 C 0.238281 -0.734375 -0.0703125 -1.101562 0 -1.65625 C 0.0703125 -2.207031 0.109375 -2.8125 0.109375 -3.46875 C 0.109375 -4.6875 0.109375 -5.898438 0.109375 -7.109375 C 0.109375 -8.316406 0.09375 -9.507812 0.0625 -10.6875 C 0.0625 -15.539062 0.0625 -20.378906 0.0625 -25.203125 C 0.0625 -30.035156 0.078125 -34.859375 0.109375 -39.671875 C 0.109375 -40.117188 0.289062 -40.425781 0.65625 -40.59375 C 1.03125 -40.757812 1.445312 -40.859375 1.90625 -40.890625 C 2.363281 -40.929688 2.738281 -40.929688 3.03125 -40.890625 C 3.507812 -40.859375 3.96875 -40.800781 4.40625 -40.71875 C 4.84375 -40.644531 5.300781 -40.59375 5.78125 -40.5625 C 6 -40.5625 6.21875 -40.566406 6.4375 -40.578125 C 6.664062 -40.597656 6.867188 -40.570312 7.046875 -40.5 C 7.347656 -40.46875 7.644531 -40.320312 7.9375 -40.0625 C 8.226562 -39.800781 8.394531 -39.507812 8.4375 -39.1875 C 8.582031 -37.414062 8.679688 -35.65625 8.734375 -33.90625 C 8.785156 -32.164062 8.921875 -30.414062 9.140625 -28.65625 C 9.222656 -28.175781 9.363281 -27.6875 9.5625 -27.1875 C 9.757812 -26.695312 10.15625 -26.453125 10.75 -26.453125 C 11.113281 -26.453125 11.441406 -26.597656 11.734375 -26.890625 C 12.140625 -27.296875 12.546875 -27.703125 12.953125 -28.109375 C 13.359375 -28.515625 13.742188 -28.898438 14.109375 -29.265625 C 15.066406 -30.140625 15.984375 -31.046875 16.859375 -31.984375 C 17.742188 -32.921875 18.535156 -33.941406 19.234375 -35.046875 C 20.515625 -37.109375 22.035156 -38.585938 23.796875 -39.484375 C 25.566406 -40.390625 27.828125 -40.84375 30.578125 -40.84375 C 31.316406 -40.84375 32.035156 -40.820312 32.734375 -40.78125 C 33.429688 -40.738281 33.863281 -40.550781 34.03125 -40.21875 C 34.195312 -39.894531 33.859375 -39.253906 33.015625 -38.296875 C 31.097656 -36.171875 29.179688 -34.039062 27.265625 -31.90625 C 25.359375 -29.78125 23.4375 -27.6875 21.5 -25.625 C 20.71875 -24.8125 20.265625 -24.035156 20.140625 -23.296875 C 20.015625 -22.566406 20.085938 -21.867188 20.359375 -21.203125 C 20.640625 -20.546875 20.976562 -19.925781 21.375 -19.34375 C 23.363281 -16.664062 25.359375 -13.984375 27.359375 -11.296875 C 29.359375 -8.617188 31.332031 -5.921875 33.28125 -3.203125 C 33.65625 -2.722656 33.953125 -2.242188 34.171875 -1.765625 C 34.390625 -1.285156 34.40625 -0.890625 34.21875 -0.578125 C 34.039062 -0.265625 33.53125 -0.09375 32.6875 -0.0625 C 32.019531 -0.0195312 31.351562 -0.046875 30.6875 -0.140625 C 30.03125 -0.234375 29.351562 -0.28125 28.65625 -0.28125 C 27.8125 -0.28125 27.019531 -0.296875 26.28125 -0.328125 C 25.550781 -0.367188 24.851562 -0.71875 24.1875 -1.375 C 23.9375 -1.632812 23.753906 -1.835938 23.640625 -1.984375 Z M 23.640625 -1.984375 "/></g></g></g><g fill="#000000" fill-opacity="1"><g transform="translate(261.941915, 55.979816)"><g><path d="M 18.953125 -0.171875 C 18.472656 -0.128906 17.992188 -0.0976562 17.515625 -0.078125 C 17.046875 -0.0664062 16.570312 -0.0625 16.09375 -0.0625 C 13.332031 -0.09375 10.617188 -0.554688 7.953125 -1.453125 C 5.296875 -2.359375 2.9375 -3.75 0.875 -5.625 C 0.726562 -5.769531 0.546875 -5.953125 0.328125 -6.171875 C 0.109375 -6.390625 0.0195312 -6.628906 0.0625 -6.890625 C 0.09375 -6.992188 0.144531 -7.09375 0.21875 -7.1875 C 0.289062 -7.28125 0.347656 -7.363281 0.390625 -7.4375 C 0.785156 -7.875 1.164062 -8.304688 1.53125 -8.734375 C 1.90625 -9.160156 2.273438 -9.59375 2.640625 -10.03125 C 2.941406 -10.363281 3.226562 -10.738281 3.5 -11.15625 C 3.769531 -11.582031 4.144531 -11.8125 4.625 -11.84375 C 4.957031 -11.84375 5.269531 -11.753906 5.5625 -11.578125 C 6.738281 -11.054688 7.90625 -10.472656 9.0625 -9.828125 C 10.21875 -9.191406 11.394531 -8.632812 12.59375 -8.15625 C 13.789062 -7.675781 15.007812 -7.425781 16.25 -7.40625 C 17.5 -7.394531 18.769531 -7.738281 20.0625 -8.4375 C 20.425781 -8.613281 20.773438 -8.835938 21.109375 -9.109375 C 21.441406 -9.390625 21.695312 -9.695312 21.875 -10.03125 C 22.320312 -10.84375 22.429688 -11.578125 22.203125 -12.234375 C 21.984375 -12.890625 21.570312 -13.484375 20.96875 -14.015625 C 20.363281 -14.554688 19.691406 -15.019531 18.953125 -15.40625 C 18.222656 -15.789062 17.582031 -16.09375 17.03125 -16.3125 C 15.8125 -16.820312 14.578125 -17.25 13.328125 -17.59375 C 12.085938 -17.945312 10.84375 -18.328125 9.59375 -18.734375 C 8.375 -19.140625 7.195312 -19.632812 6.0625 -20.21875 C 4.925781 -20.8125 3.972656 -21.625 3.203125 -22.65625 C 2.171875 -23.976562 1.570312 -25.507812 1.40625 -27.25 C 1.238281 -29 1.335938 -30.660156 1.703125 -32.234375 C 2.003906 -33.703125 2.601562 -35 3.5 -36.125 C 4.394531 -37.25 5.488281 -38.160156 6.78125 -38.859375 C 9.164062 -40.253906 12.066406 -40.953125 15.484375 -40.953125 C 16.921875 -40.953125 18.34375 -40.820312 19.75 -40.5625 C 21.164062 -40.300781 22.554688 -39.929688 23.921875 -39.453125 C 24.648438 -39.203125 25.398438 -38.921875 26.171875 -38.609375 C 26.941406 -38.296875 27.601562 -37.925781 28.15625 -37.5 C 28.707031 -37.082031 29.054688 -36.539062 29.203125 -35.875 C 29.347656 -35.21875 29.164062 -34.410156 28.65625 -33.453125 C 28.507812 -33.085938 28.328125 -32.738281 28.109375 -32.40625 C 27.890625 -32.070312 27.664062 -31.757812 27.4375 -31.46875 C 27.257812 -31.101562 27.039062 -30.847656 26.78125 -30.703125 C 26.34375 -30.398438 25.875 -30.378906 25.375 -30.640625 C 24.882812 -30.898438 24.453125 -31.140625 24.078125 -31.359375 C 22.753906 -32.203125 21.347656 -32.84375 19.859375 -33.28125 C 18.378906 -33.726562 16.847656 -33.859375 15.265625 -33.671875 C 14.234375 -33.554688 13.273438 -33.234375 12.390625 -32.703125 C 11.515625 -32.171875 10.9375 -31.488281 10.65625 -30.65625 C 10.382812 -29.832031 10.65625 -28.890625 11.46875 -27.828125 C 12.34375 -26.691406 13.453125 -25.828125 14.796875 -25.234375 C 16.140625 -24.648438 17.546875 -24.179688 19.015625 -23.828125 C 20.484375 -23.484375 21.84375 -23.054688 23.09375 -22.546875 C 24.050781 -22.171875 24.992188 -21.734375 25.921875 -21.234375 C 26.859375 -20.742188 27.695312 -20.132812 28.4375 -19.40625 C 29.46875 -18.40625 30.191406 -17.1875 30.609375 -15.75 C 31.035156 -14.320312 31.210938 -12.851562 31.140625 -11.34375 C 31.066406 -9.84375 30.753906 -8.453125 30.203125 -7.171875 C 29.578125 -5.691406 28.664062 -4.457031 27.46875 -3.46875 C 26.28125 -2.476562 24.945312 -1.71875 23.46875 -1.1875 C 22 -0.65625 20.492188 -0.316406 18.953125 -0.171875 Z M 18.953125 -0.171875 "/></g></g></g><g clip-path="url(#d97c4d1b4d)"><g clip-path="url(#24ccd47430)"><g transform="matrix(1, 0, 0, 1, 7, 0)"><g clip-path="url(#f631b8ad66)"><g clip-path="url(#12ce3ccd31)"><g clip-path="url(#c20fc5f032)"><path fill="#1b1b1b" d="M 0.738281 0.238281 L 15.652344 0.238281 L 15.652344 15.148438 L 0.738281 15.148438 Z M 0.738281 0.238281 " fill-opacity="1" fill-rule="nonzero"/></g></g></g></g></g></g><g fill="#000000" fill-opacity="1"><g transform="translate(4.060815, 71.357114)"><g><path d="M 2.109375 -7.484375 C 2.691406 -7.484375 3.109375 -7.34375 3.359375 -7.0625 C 3.609375 -6.789062 3.734375 -6.378906 3.734375 -5.828125 L 3.734375 -5.46875 C 3.734375 -5.070312 3.664062 -4.75 3.53125 -4.5 C 3.40625 -4.257812 3.179688 -4.085938 2.859375 -3.984375 C 3.222656 -3.890625 3.476562 -3.703125 3.625 -3.421875 C 3.78125 -3.140625 3.859375 -2.796875 3.859375 -2.390625 L 3.859375 -1.75 C 3.859375 -1.1875 3.71875 -0.753906 3.4375 -0.453125 C 3.164062 -0.148438 2.734375 0 2.140625 0 L 0.421875 0 L 0.421875 -7.484375 Z M 1.90625 -4.3125 C 2.238281 -4.3125 2.488281 -4.378906 2.65625 -4.515625 C 2.820312 -4.648438 2.90625 -4.910156 2.90625 -5.296875 L 2.90625 -5.734375 C 2.90625 -6.066406 2.84375 -6.3125 2.71875 -6.46875 C 2.59375 -6.632812 2.378906 -6.71875 2.078125 -6.71875 L 1.265625 -6.71875 L 1.265625 -4.3125 Z M 2.140625 -0.765625 C 2.734375 -0.765625 3.03125 -1.101562 3.03125 -1.78125 L 3.03125 -2.4375 C 3.03125 -2.851562 2.945312 -3.140625 2.78125 -3.296875 C 2.613281 -3.460938 2.347656 -3.546875 1.984375 -3.546875 L 1.265625 -3.546875 L 1.265625 -0.765625 Z M 2.140625 -0.765625 "/></g></g></g><g fill="#000000" fill-opacity="1"><g transform="translate(8.247616, 71.357114)"><g><path d="M 2.09375 -7.484375 C 2.6875 -7.484375 3.113281 -7.335938 3.375 -7.046875 C 3.632812 -6.753906 3.765625 -6.328125 3.765625 -5.765625 L 3.765625 -5.15625 C 3.765625 -4.75 3.6875 -4.414062 3.53125 -4.15625 C 3.382812 -3.894531 3.148438 -3.71875 2.828125 -3.625 C 3.171875 -3.519531 3.410156 -3.332031 3.546875 -3.0625 C 3.691406 -2.800781 3.765625 -2.46875 3.765625 -2.0625 L 3.765625 -0.890625 C 3.765625 -0.734375 3.769531 -0.578125 3.78125 -0.421875 C 3.800781 -0.265625 3.847656 -0.125 3.921875 0 L 3.078125 0 C 3.023438 -0.101562 2.988281 -0.21875 2.96875 -0.34375 C 2.945312 -0.46875 2.9375 -0.65625 2.9375 -0.90625 L 2.9375 -2.078125 C 2.9375 -2.503906 2.84375 -2.796875 2.65625 -2.953125 C 2.46875 -3.117188 2.195312 -3.203125 1.84375 -3.203125 L 1.265625 -3.203125 L 1.265625 0 L 0.421875 0 L 0.421875 -7.484375 Z M 1.875 -3.953125 C 2.21875 -3.953125 2.476562 -4.019531 2.65625 -4.15625 C 2.84375 -4.300781 2.9375 -4.578125 2.9375 -4.984375 L 2.9375 -5.703125 C 2.9375 -6.035156 2.867188 -6.285156 2.734375 -6.453125 C 2.609375 -6.628906 2.390625 -6.71875 2.078125 -6.71875 L 1.265625 -6.71875 L 1.265625 -3.953125 Z M 1.875 -3.953125 "/></g></g></g><g fill="#000000" fill-opacity="1"><g transform="translate(12.455774, 71.357114)"><g><path d="M 1.265625 -1.5 L 0.984375 0 L 0.21875 0 L 1.640625 -7.484375 L 2.859375 -7.484375 L 4.28125 0 L 3.453125 0 L 3.15625 -1.5 Z M 1.375 -2.21875 L 3.046875 -2.21875 L 2.203125 -6.546875 Z M 1.375 -2.21875 "/></g></g></g><g fill="#000000" fill-opacity="1"><g transform="translate(16.962986, 71.357114)"><g><path d="M 2 -7.5625 C 2.570312 -7.5625 2.992188 -7.390625 3.265625 -7.046875 C 3.535156 -6.710938 3.671875 -6.257812 3.671875 -5.6875 L 3.671875 -5.484375 L 2.875 -5.484375 L 2.875 -5.734375 C 2.875 -6.066406 2.804688 -6.328125 2.671875 -6.515625 C 2.535156 -6.703125 2.316406 -6.796875 2.015625 -6.796875 C 1.722656 -6.796875 1.507812 -6.703125 1.375 -6.515625 C 1.238281 -6.328125 1.171875 -6.066406 1.171875 -5.734375 C 1.171875 -5.460938 1.226562 -5.222656 1.34375 -5.015625 C 1.46875 -4.804688 1.625 -4.613281 1.8125 -4.4375 C 2 -4.257812 2.203125 -4.085938 2.421875 -3.921875 C 2.640625 -3.753906 2.835938 -3.570312 3.015625 -3.375 C 3.203125 -3.175781 3.359375 -2.945312 3.484375 -2.6875 C 3.609375 -2.4375 3.671875 -2.140625 3.671875 -1.796875 C 3.671875 -1.222656 3.535156 -0.765625 3.265625 -0.421875 C 2.992188 -0.0859375 2.566406 0.078125 1.984375 0.078125 C 1.410156 0.078125 0.988281 -0.0859375 0.71875 -0.421875 C 0.445312 -0.765625 0.3125 -1.222656 0.3125 -1.796875 L 0.3125 -2.21875 L 1.09375 -2.21875 L 1.09375 -1.75 C 1.09375 -1.40625 1.160156 -1.140625 1.296875 -0.953125 C 1.441406 -0.773438 1.664062 -0.6875 1.96875 -0.6875 C 2.269531 -0.6875 2.488281 -0.773438 2.625 -0.953125 C 2.769531 -1.140625 2.84375 -1.40625 2.84375 -1.75 C 2.84375 -2.03125 2.78125 -2.269531 2.65625 -2.46875 C 2.53125 -2.675781 2.375 -2.863281 2.1875 -3.03125 C 2 -3.207031 1.796875 -3.378906 1.578125 -3.546875 C 1.367188 -3.722656 1.171875 -3.910156 0.984375 -4.109375 C 0.804688 -4.304688 0.65625 -4.53125 0.53125 -4.78125 C 0.40625 -5.03125 0.34375 -5.332031 0.34375 -5.6875 C 0.34375 -6.257812 0.476562 -6.710938 0.75 -7.046875 C 1.019531 -7.390625 1.4375 -7.5625 2 -7.5625 Z M 2 -7.5625 "/></g></g></g><g fill="#000000" fill-opacity="1"><g transform="translate(20.936168, 71.357114)"><g><path d="M 1.265625 -7.484375 L 1.265625 0 L 0.421875 0 L 0.421875 -7.484375 Z M 1.265625 -7.484375 "/></g></g></g><g fill="#000000" fill-opacity="1"><g transform="translate(22.623709, 71.357114)"><g><path d="M 0.421875 0 L 0.421875 -7.484375 L 1.265625 -7.484375 L 1.265625 -0.765625 L 3.40625 -0.765625 L 3.40625 0 Z M 0.421875 0 "/></g></g></g><g fill="#000000" fill-opacity="1"><g transform="translate(4.060815, 79.990824)"><g><path d="M 1.796875 -6.453125 C 2.296875 -6.453125 2.660156 -6.304688 2.890625 -6.015625 C 3.117188 -5.722656 3.234375 -5.332031 3.234375 -4.84375 C 3.234375 -4.519531 3.179688 -4.226562 3.078125 -3.96875 C 2.972656 -3.707031 2.835938 -3.460938 2.671875 -3.234375 C 2.515625 -3.015625 2.34375 -2.804688 2.15625 -2.609375 C 1.96875 -2.421875 1.789062 -2.226562 1.625 -2.03125 C 1.46875 -1.84375 1.332031 -1.640625 1.21875 -1.421875 C 1.113281 -1.210938 1.0625 -0.988281 1.0625 -0.75 L 1.0625 -0.640625 L 3.171875 -0.640625 L 3.171875 0 L 0.359375 0 L 0.359375 -0.546875 C 0.359375 -0.890625 0.410156 -1.191406 0.515625 -1.453125 C 0.628906 -1.710938 0.765625 -1.945312 0.921875 -2.15625 C 1.085938 -2.375 1.257812 -2.578125 1.4375 -2.765625 C 1.625 -2.960938 1.796875 -3.160156 1.953125 -3.359375 C 2.117188 -3.566406 2.253906 -3.785156 2.359375 -4.015625 C 2.472656 -4.242188 2.53125 -4.507812 2.53125 -4.8125 C 2.53125 -5.132812 2.472656 -5.378906 2.359375 -5.546875 C 2.242188 -5.722656 2.050781 -5.8125 1.78125 -5.8125 C 1.519531 -5.8125 1.328125 -5.722656 1.203125 -5.546875 C 1.085938 -5.378906 1.03125 -5.15625 1.03125 -4.875 L 1.03125 -4.3125 L 0.359375 -4.3125 L 0.359375 -4.828125 C 0.359375 -5.316406 0.472656 -5.707031 0.703125 -6 C 0.941406 -6.300781 1.304688 -6.453125 1.796875 -6.453125 Z M 1.796875 -6.453125 "/></g></g></g><g fill="#000000" fill-opacity="1"><g transform="translate(7.591631, 79.990824)"><g><path d="M 0.3125 -4.84375 C 0.3125 -5.332031 0.429688 -5.722656 0.671875 -6.015625 C 0.910156 -6.304688 1.273438 -6.453125 1.765625 -6.453125 C 2.265625 -6.453125 2.632812 -6.304688 2.875 -6.015625 C 3.113281 -5.722656 3.234375 -5.332031 3.234375 -4.84375 L 3.234375 -1.546875 C 3.234375 -1.054688 3.113281 -0.664062 2.875 -0.375 C 2.632812 -0.0820312 2.265625 0.0625 1.765625 0.0625 C 1.273438 0.0625 0.910156 -0.0820312 0.671875 -0.375 C 0.429688 -0.664062 0.3125 -1.054688 0.3125 -1.546875 Z M 1.015625 -1.5 C 1.015625 -1.207031 1.078125 -0.976562 1.203125 -0.8125 C 1.328125 -0.65625 1.515625 -0.578125 1.765625 -0.578125 C 2.023438 -0.578125 2.21875 -0.65625 2.34375 -0.8125 C 2.46875 -0.976562 2.53125 -1.207031 2.53125 -1.5 L 2.53125 -4.875 C 2.53125 -5.164062 2.46875 -5.394531 2.34375 -5.5625 C 2.21875 -5.726562 2.023438 -5.8125 1.765625 -5.8125 C 1.515625 -5.8125 1.328125 -5.726562 1.203125 -5.5625 C 1.078125 -5.394531 1.015625 -5.164062 1.015625 -4.875 Z M 1.015625 -1.5 "/></g></g></g><g fill="#000000" fill-opacity="1"><g transform="translate(11.140695, 79.990824)"><g><path d="M 1.796875 -6.453125 C 2.296875 -6.453125 2.660156 -6.304688 2.890625 -6.015625 C 3.117188 -5.722656 3.234375 -5.332031 3.234375 -4.84375 C 3.234375 -4.519531 3.179688 -4.226562 3.078125 -3.96875 C 2.972656 -3.707031 2.835938 -3.460938 2.671875 -3.234375 C 2.515625 -3.015625 2.34375 -2.804688 2.15625 -2.609375 C 1.96875 -2.421875 1.789062 -2.226562 1.625 -2.03125 C 1.46875 -1.84375 1.332031 -1.640625 1.21875 -1.421875 C 1.113281 -1.210938 1.0625 -0.988281 1.0625 -0.75 L 1.0625 -0.640625 L 3.171875 -0.640625 L 3.171875 0 L 0.359375 0 L 0.359375 -0.546875 C 0.359375 -0.890625 0.410156 -1.191406 0.515625 -1.453125 C 0.628906 -1.710938 0.765625 -1.945312 0.921875 -2.15625 C 1.085938 -2.375 1.257812 -2.578125 1.4375 -2.765625 C 1.625 -2.960938 1.796875 -3.160156 1.953125 -3.359375 C 2.117188 -3.566406 2.253906 -3.785156 2.359375 -4.015625 C 2.472656 -4.242188 2.53125 -4.507812 2.53125 -4.8125 C 2.53125 -5.132812 2.472656 -5.378906 2.359375 -5.546875 C 2.242188 -5.722656 2.050781 -5.8125 1.78125 -5.8125 C 1.519531 -5.8125 1.328125 -5.722656 1.203125 -5.546875 C 1.085938 -5.378906 1.03125 -5.15625 1.03125 -4.875 L 1.03125 -4.3125 L 0.359375 -4.3125 L 0.359375 -4.828125 C 0.359375 -5.316406 0.472656 -5.707031 0.703125 -6 C 0.941406 -6.300781 1.304688 -6.453125 1.796875 -6.453125 Z M 1.796875 -6.453125 "/></g></g></g><g fill="#000000" fill-opacity="1"><g transform="translate(14.671511, 79.990824)"><g><path d="M 1.078125 -3.78125 C 1.285156 -4.132812 1.601562 -4.3125 2.03125 -4.3125 C 2.4375 -4.3125 2.734375 -4.171875 2.921875 -3.890625 C 3.117188 -3.617188 3.21875 -3.253906 3.21875 -2.796875 L 3.21875 -1.546875 C 3.21875 -1.066406 3.097656 -0.675781 2.859375 -0.375 C 2.617188 -0.0820312 2.253906 0.0625 1.765625 0.0625 C 1.285156 0.0625 0.925781 -0.0820312 0.6875 -0.375 C 0.457031 -0.675781 0.34375 -1.066406 0.34375 -1.546875 L 0.34375 -1.984375 L 1 -1.984375 L 1 -1.5 C 1 -1.207031 1.0625 -0.976562 1.1875 -0.8125 C 1.3125 -0.65625 1.5 -0.578125 1.75 -0.578125 C 2.007812 -0.578125 2.195312 -0.65625 2.3125 -0.8125 C 2.4375 -0.976562 2.5 -1.207031 2.5 -1.5 L 2.5 -2.75 C 2.5 -3.039062 2.4375 -3.265625 2.3125 -3.421875 C 2.195312 -3.585938 2.007812 -3.671875 1.75 -3.671875 C 1.550781 -3.671875 1.390625 -3.613281 1.265625 -3.5 C 1.140625 -3.382812 1.0625 -3.210938 1.03125 -2.984375 L 1.03125 -2.84375 L 0.359375 -2.84375 L 0.53125 -6.390625 L 3.0625 -6.390625 L 3.0625 -5.75 L 1.171875 -5.75 Z M 1.078125 -3.78125 "/></g></g></g><g clip-path="url(#dd76ba38d6)"><g clip-path="url(#5347ad79e4)"><g transform="matrix(1, 0, 0, 1, 22, 0)"><g clip-path="url(#354f698512)"><g clip-path="url(#2dcc2f721c)"><g clip-path="url(#200392f6bb)"><path fill="#1b1b1b" d="M 0.652344 0.238281 L 15.5625 0.238281 L 15.5625 15.148438 L 0.652344 15.148438 Z M 0.652344 0.238281 " fill-opacity="1" fill-rule="nonzero"/></g></g></g></g></g></g></g></g></g></svg>