<svg xmlns="http://www.w3.org/2000/svg" xmlns:xlink="http://www.w3.org/1999/xlink" width="500" zoomAndPan="magnify" viewBox="0 0 375 374.999991" height="500" preserveAspectRatio="xMidYMid meet" version="1.0"><defs><g/><clipPath id="dc3828ad26"><path d="M 41.238281 136.691406 L 56.386719 136.691406 L 56.386719 151.839844 L 41.238281 151.839844 Z M 41.238281 136.691406 " clip-rule="nonzero"/></clipPath><clipPath id="c24f798a72"><path d="M 48.8125 136.691406 C 44.628906 136.691406 41.238281 140.082031 41.238281 144.265625 C 41.238281 148.449219 44.628906 151.839844 48.8125 151.839844 C 52.996094 151.839844 56.386719 148.449219 56.386719 144.265625 C 56.386719 140.082031 52.996094 136.691406 48.8125 136.691406 Z M 48.8125 136.691406 " clip-rule="nonzero"/></clipPath><clipPath id="3941076190"><path d="M 0.238281 0.691406 L 15.386719 0.691406 L 15.386719 15.839844 L 0.238281 15.839844 Z M 0.238281 0.691406 " clip-rule="nonzero"/></clipPath><clipPath id="833f508cb4"><path d="M 7.8125 0.691406 C 3.628906 0.691406 0.238281 4.082031 0.238281 8.265625 C 0.238281 12.449219 3.628906 15.839844 7.8125 15.839844 C 11.996094 15.839844 15.386719 12.449219 15.386719 8.265625 C 15.386719 4.082031 11.996094 0.691406 7.8125 0.691406 Z M 7.8125 0.691406 " clip-rule="nonzero"/></clipPath><clipPath id="0888ee5cc1"><rect x="0" width="16" y="0" height="16"/></clipPath><clipPath id="9bff0a00f3"><path d="M 56.386719 136.691406 L 71.539062 136.691406 L 71.539062 151.839844 L 56.386719 151.839844 Z M 56.386719 136.691406 " clip-rule="nonzero"/></clipPath><clipPath id="9deba469d5"><path d="M 63.964844 136.691406 C 59.78125 136.691406 56.386719 140.082031 56.386719 144.265625 C 56.386719 148.449219 59.78125 151.839844 63.964844 151.839844 C 68.148438 151.839844 71.539062 148.449219 71.539062 144.265625 C 71.539062 140.082031 68.148438 136.691406 63.964844 136.691406 Z M 63.964844 136.691406 " clip-rule="nonzero"/></clipPath><clipPath id="27bb867940"><path d="M 0.386719 0.691406 L 15.539062 0.691406 L 15.539062 15.839844 L 0.386719 15.839844 Z M 0.386719 0.691406 " clip-rule="nonzero"/></clipPath><clipPath id="a9ff7868d9"><path d="M 7.964844 0.691406 C 3.78125 0.691406 0.386719 4.082031 0.386719 8.265625 C 0.386719 12.449219 3.78125 15.839844 7.964844 15.839844 C 12.148438 15.839844 15.539062 12.449219 15.539062 8.265625 C 15.539062 4.082031 12.148438 0.691406 7.964844 0.691406 Z M 7.964844 0.691406 " clip-rule="nonzero"/></clipPath><clipPath id="b80d676699"><rect x="0" width="16" y="0" height="16"/></clipPath></defs><g fill="#000000" fill-opacity="1"><g transform="translate(34.726427, 193.324631)"><g><path d="M 40.265625 -9.015625 C 40.785156 -7.816406 41.328125 -6.617188 41.890625 -5.421875 C 42.453125 -4.234375 42.972656 -3.039062 43.453125 -1.84375 C 43.710938 -1.25 43.816406 -0.820312 43.765625 -0.5625 C 43.710938 -0.300781 43.347656 -0.148438 42.671875 -0.109375 C 41.660156 -0.078125 40.640625 -0.0625 39.609375 -0.0625 C 38.585938 -0.0625 37.554688 -0.113281 36.515625 -0.21875 C 35.734375 -0.300781 35.0625 -0.664062 34.5 -1.3125 C 33.9375 -1.96875 33.5625 -2.671875 33.375 -3.421875 C 33.113281 -4.390625 32.75 -5.335938 32.28125 -6.265625 C 31.8125 -7.203125 31.148438 -7.953125 30.296875 -8.515625 C 29.585938 -8.992188 28.882812 -9.253906 28.1875 -9.296875 C 27.5 -9.335938 26.765625 -9.359375 25.984375 -9.359375 C 25.085938 -9.316406 24.191406 -9.304688 23.296875 -9.328125 C 22.398438 -9.347656 21.484375 -9.375 20.546875 -9.40625 C 19.460938 -9.476562 18.40625 -9.488281 17.375 -9.4375 C 16.351562 -9.382812 15.34375 -9.09375 14.34375 -8.5625 C 13.070312 -7.925781 12.035156 -7.039062 11.234375 -5.90625 C 10.429688 -4.769531 9.878906 -3.507812 9.578125 -2.125 C 9.503906 -1.675781 9.351562 -1.265625 9.125 -0.890625 C 8.90625 -0.523438 8.535156 -0.320312 8.015625 -0.28125 C 7.859375 -0.28125 7.347656 -0.25 6.484375 -0.1875 C 5.628906 -0.132812 4.6875 -0.0976562 3.65625 -0.078125 C 2.632812 -0.0664062 1.757812 -0.113281 1.03125 -0.21875 C 0.300781 -0.332031 -0.0195312 -0.519531 0.0625 -0.78125 C 0.132812 -0.96875 0.1875 -1.132812 0.21875 -1.28125 C 0.257812 -1.4375 0.300781 -1.585938 0.34375 -1.734375 C 0.863281 -3.265625 1.492188 -4.75 2.234375 -6.1875 C 2.984375 -7.625 3.675781 -9.085938 4.3125 -10.578125 C 5.019531 -12.179688 5.71875 -13.785156 6.40625 -15.390625 C 7.101562 -17.003906 7.804688 -18.613281 8.515625 -20.21875 C 9.929688 -23.425781 11.328125 -26.632812 12.703125 -29.84375 C 14.085938 -33.050781 15.4375 -36.265625 16.75 -39.484375 C 17.082031 -40.265625 17.453125 -40.800781 17.859375 -41.09375 C 18.273438 -41.394531 18.851562 -41.546875 19.59375 -41.546875 L 19.71875 -41.546875 C 20.425781 -41.515625 21.125 -41.515625 21.8125 -41.546875 C 22.5 -41.585938 23.195312 -41.585938 23.90625 -41.546875 C 24.914062 -41.472656 25.65625 -41.179688 26.125 -40.671875 C 26.59375 -40.171875 27.015625 -39.515625 27.390625 -38.703125 C 27.835938 -37.691406 28.285156 -36.691406 28.734375 -35.703125 C 29.179688 -34.710938 29.628906 -33.710938 30.078125 -32.703125 C 30.929688 -30.722656 31.804688 -28.734375 32.703125 -26.734375 C 33.597656 -24.742188 34.476562 -22.757812 35.34375 -20.78125 C 35.414062 -20.664062 35.703125 -20 36.203125 -18.78125 C 36.703125 -17.570312 37.316406 -16.085938 38.046875 -14.328125 C 38.773438 -12.578125 39.515625 -10.804688 40.265625 -9.015625 Z M 25.53125 -16.859375 C 26.164062 -16.890625 26.6875 -16.90625 27.09375 -16.90625 C 27.507812 -16.90625 27.585938 -17.28125 27.328125 -18.03125 C 27.179688 -18.625 26.945312 -19.191406 26.625 -19.734375 C 26.3125 -20.273438 26.003906 -20.828125 25.703125 -21.390625 C 25.296875 -22.140625 24.929688 -22.929688 24.609375 -23.765625 C 24.296875 -24.609375 23.953125 -25.441406 23.578125 -26.265625 C 23.390625 -26.671875 23.21875 -27.097656 23.0625 -27.546875 C 22.914062 -27.992188 22.75 -28.40625 22.5625 -28.78125 C 22.300781 -29.414062 22.085938 -29.722656 21.921875 -29.703125 C 21.753906 -29.691406 21.539062 -29.367188 21.28125 -28.734375 C 20.863281 -27.796875 20.457031 -26.84375 20.0625 -25.875 C 19.675781 -24.90625 19.28125 -23.929688 18.875 -22.953125 C 18.5 -22.097656 18.050781 -21.269531 17.53125 -20.46875 C 17.007812 -19.664062 16.617188 -18.796875 16.359375 -17.859375 C 16.273438 -17.597656 16.273438 -17.375 16.359375 -17.1875 C 16.460938 -16.8125 16.820312 -16.660156 17.4375 -16.734375 C 18.0625 -16.816406 18.503906 -16.859375 18.765625 -16.859375 C 19.878906 -16.859375 20.992188 -16.859375 22.109375 -16.859375 C 23.234375 -16.859375 24.375 -16.859375 25.53125 -16.859375 Z M 25.53125 -16.859375 "/></g></g></g><g fill="#000000" fill-opacity="1"><g transform="translate(78.623534, 193.324631)"><g><path d="M 28.21875 -1.40625 C 25.6875 -4.613281 23.175781 -7.835938 20.6875 -11.078125 C 18.207031 -14.328125 15.695312 -17.539062 13.15625 -20.71875 C 12.96875 -20.945312 12.628906 -21.285156 12.140625 -21.734375 C 11.660156 -22.179688 11.148438 -22.5625 10.609375 -22.875 C 10.066406 -23.195312 9.597656 -23.316406 9.203125 -23.234375 C 8.816406 -23.160156 8.625 -22.734375 8.625 -21.953125 C 8.625 -19.003906 8.675781 -16.070312 8.78125 -13.15625 C 8.894531 -10.25 8.878906 -7.320312 8.734375 -4.375 C 8.703125 -3.84375 8.6875 -3.285156 8.6875 -2.703125 C 8.6875 -2.128906 8.609375 -1.582031 8.453125 -1.0625 C 8.335938 -0.582031 8.175781 -0.3125 7.96875 -0.25 C 7.769531 -0.195312 7.390625 -0.171875 6.828125 -0.171875 C 5.816406 -0.203125 4.796875 -0.21875 3.765625 -0.21875 C 2.742188 -0.21875 1.710938 -0.21875 0.671875 -0.21875 C 0.453125 -0.21875 0.296875 -0.640625 0.203125 -1.484375 C 0.109375 -2.328125 0.0625 -3.375 0.0625 -4.625 C 0.0625 -5.875 0.0664062 -7.148438 0.078125 -8.453125 C 0.0976562 -9.765625 0.125 -10.914062 0.15625 -11.90625 C 0.195312 -12.894531 0.21875 -13.535156 0.21875 -13.828125 C 0.21875 -17.929688 0.207031 -22.046875 0.1875 -26.171875 C 0.175781 -30.304688 0.1875 -34.425781 0.21875 -38.53125 C 0.21875 -39.09375 0.253906 -39.625 0.328125 -40.125 C 0.410156 -40.625 0.75 -41.003906 1.34375 -41.265625 C 1.9375 -41.492188 2.597656 -41.597656 3.328125 -41.578125 C 4.054688 -41.554688 4.71875 -41.492188 5.3125 -41.390625 C 6.695312 -41.117188 7.929688 -40.554688 9.015625 -39.703125 C 10.097656 -38.847656 11.015625 -37.878906 11.765625 -36.796875 C 12.878906 -35.191406 14.023438 -33.59375 15.203125 -32 C 16.378906 -30.414062 17.566406 -28.835938 18.765625 -27.265625 C 19.847656 -25.890625 20.921875 -24.425781 21.984375 -22.875 C 23.046875 -21.320312 24.210938 -19.953125 25.484375 -18.765625 C 25.859375 -18.390625 26.269531 -18.144531 26.71875 -18.03125 C 27.3125 -17.882812 27.8125 -18.015625 28.21875 -18.421875 C 28.632812 -18.835938 28.914062 -19.304688 29.0625 -19.828125 C 29.175781 -20.203125 29.238281 -20.59375 29.25 -21 C 29.269531 -21.40625 29.28125 -21.796875 29.28125 -22.171875 C 29.207031 -25.015625 29.144531 -27.832031 29.09375 -30.625 C 29.039062 -33.425781 29.144531 -36.226562 29.40625 -39.03125 C 29.507812 -39.96875 29.832031 -40.613281 30.375 -40.96875 C 30.914062 -41.320312 31.578125 -41.503906 32.359375 -41.515625 C 33.148438 -41.535156 33.945312 -41.476562 34.75 -41.34375 C 35.550781 -41.21875 36.269531 -41.140625 36.90625 -41.109375 C 37.164062 -41.109375 37.40625 -41.050781 37.625 -40.9375 C 37.925781 -40.75 38.09375 -40.421875 38.125 -39.953125 C 38.164062 -39.484375 38.160156 -39 38.109375 -38.5 C 38.054688 -38 38.007812 -37.597656 37.96875 -37.296875 C 37.96875 -36.546875 37.96875 -35.785156 37.96875 -35.015625 C 37.96875 -34.253906 37.96875 -33.503906 37.96875 -32.765625 C 37.925781 -31.265625 37.90625 -29.769531 37.90625 -28.28125 C 37.90625 -26.789062 37.90625 -25.28125 37.90625 -23.75 C 37.90625 -20.832031 37.90625 -17.898438 37.90625 -14.953125 C 37.90625 -12.003906 37.90625 -9.09375 37.90625 -6.21875 C 37.90625 -5.394531 37.929688 -4.523438 37.984375 -3.609375 C 38.046875 -2.691406 38.019531 -1.828125 37.90625 -1.015625 C 37.800781 -0.378906 37.570312 -0.0664062 37.21875 -0.078125 C 36.863281 -0.0976562 36.421875 -0.109375 35.890625 -0.109375 C 35.179688 -0.109375 34.460938 -0.109375 33.734375 -0.109375 C 33.003906 -0.109375 32.269531 -0.109375 31.53125 -0.109375 C 30.78125 -0.109375 30.160156 -0.171875 29.671875 -0.296875 C 29.191406 -0.429688 28.707031 -0.800781 28.21875 -1.40625 Z M 28.21875 -1.40625 "/></g></g></g><g fill="#000000" fill-opacity="1"><g transform="translate(116.921414, 193.324631)"><g><path d="M 40.265625 -9.015625 C 40.785156 -7.816406 41.328125 -6.617188 41.890625 -5.421875 C 42.453125 -4.234375 42.972656 -3.039062 43.453125 -1.84375 C 43.710938 -1.25 43.816406 -0.820312 43.765625 -0.5625 C 43.710938 -0.300781 43.347656 -0.148438 42.671875 -0.109375 C 41.660156 -0.078125 40.640625 -0.0625 39.609375 -0.0625 C 38.585938 -0.0625 37.554688 -0.113281 36.515625 -0.21875 C 35.734375 -0.300781 35.0625 -0.664062 34.5 -1.3125 C 33.9375 -1.96875 33.5625 -2.671875 33.375 -3.421875 C 33.113281 -4.390625 32.75 -5.335938 32.28125 -6.265625 C 31.8125 -7.203125 31.148438 -7.953125 30.296875 -8.515625 C 29.585938 -8.992188 28.882812 -9.253906 28.1875 -9.296875 C 27.5 -9.335938 26.765625 -9.359375 25.984375 -9.359375 C 25.085938 -9.316406 24.191406 -9.304688 23.296875 -9.328125 C 22.398438 -9.347656 21.484375 -9.375 20.546875 -9.40625 C 19.460938 -9.476562 18.40625 -9.488281 17.375 -9.4375 C 16.351562 -9.382812 15.34375 -9.09375 14.34375 -8.5625 C 13.070312 -7.925781 12.035156 -7.039062 11.234375 -5.90625 C 10.429688 -4.769531 9.878906 -3.507812 9.578125 -2.125 C 9.503906 -1.675781 9.351562 -1.265625 9.125 -0.890625 C 8.90625 -0.523438 8.535156 -0.320312 8.015625 -0.28125 C 7.859375 -0.28125 7.347656 -0.25 6.484375 -0.1875 C 5.628906 -0.132812 4.6875 -0.0976562 3.65625 -0.078125 C 2.632812 -0.0664062 1.757812 -0.113281 1.03125 -0.21875 C 0.300781 -0.332031 -0.0195312 -0.519531 0.0625 -0.78125 C 0.132812 -0.96875 0.1875 -1.132812 0.21875 -1.28125 C 0.257812 -1.4375 0.300781 -1.585938 0.34375 -1.734375 C 0.863281 -3.265625 1.492188 -4.75 2.234375 -6.1875 C 2.984375 -7.625 3.675781 -9.085938 4.3125 -10.578125 C 5.019531 -12.179688 5.71875 -13.785156 6.40625 -15.390625 C 7.101562 -17.003906 7.804688 -18.613281 8.515625 -20.21875 C 9.929688 -23.425781 11.328125 -26.632812 12.703125 -29.84375 C 14.085938 -33.050781 15.4375 -36.265625 16.75 -39.484375 C 17.082031 -40.265625 17.453125 -40.800781 17.859375 -41.09375 C 18.273438 -41.394531 18.851562 -41.546875 19.59375 -41.546875 L 19.71875 -41.546875 C 20.425781 -41.515625 21.125 -41.515625 21.8125 -41.546875 C 22.5 -41.585938 23.195312 -41.585938 23.90625 -41.546875 C 24.914062 -41.472656 25.65625 -41.179688 26.125 -40.671875 C 26.59375 -40.171875 27.015625 -39.515625 27.390625 -38.703125 C 27.835938 -37.691406 28.285156 -36.691406 28.734375 -35.703125 C 29.179688 -34.710938 29.628906 -33.710938 30.078125 -32.703125 C 30.929688 -30.722656 31.804688 -28.734375 32.703125 -26.734375 C 33.597656 -24.742188 34.476562 -22.757812 35.34375 -20.78125 C 35.414062 -20.664062 35.703125 -20 36.203125 -18.78125 C 36.703125 -17.570312 37.316406 -16.085938 38.046875 -14.328125 C 38.773438 -12.578125 39.515625 -10.804688 40.265625 -9.015625 Z M 25.53125 -16.859375 C 26.164062 -16.890625 26.6875 -16.90625 27.09375 -16.90625 C 27.507812 -16.90625 27.585938 -17.28125 27.328125 -18.03125 C 27.179688 -18.625 26.945312 -19.191406 26.625 -19.734375 C 26.3125 -20.273438 26.003906 -20.828125 25.703125 -21.390625 C 25.296875 -22.140625 24.929688 -22.929688 24.609375 -23.765625 C 24.296875 -24.609375 23.953125 -25.441406 23.578125 -26.265625 C 23.390625 -26.671875 23.21875 -27.097656 23.0625 -27.546875 C 22.914062 -27.992188 22.75 -28.40625 22.5625 -28.78125 C 22.300781 -29.414062 22.085938 -29.722656 21.921875 -29.703125 C 21.753906 -29.691406 21.539062 -29.367188 21.28125 -28.734375 C 20.863281 -27.796875 20.457031 -26.84375 20.0625 -25.875 C 19.675781 -24.90625 19.28125 -23.929688 18.875 -22.953125 C 18.5 -22.097656 18.050781 -21.269531 17.53125 -20.46875 C 17.007812 -19.664062 16.617188 -18.796875 16.359375 -17.859375 C 16.273438 -17.597656 16.273438 -17.375 16.359375 -17.1875 C 16.460938 -16.8125 16.820312 -16.660156 17.4375 -16.734375 C 18.0625 -16.816406 18.503906 -16.859375 18.765625 -16.859375 C 19.878906 -16.859375 20.992188 -16.859375 22.109375 -16.859375 C 23.234375 -16.859375 24.375 -16.859375 25.53125 -16.859375 Z M 25.53125 -16.859375 "/></g></g></g><g fill="#000000" fill-opacity="1"><g transform="translate(160.818521, 193.324631)"><g><path d="M 7.5 -41.15625 C 7.570312 -41.125 7.632812 -41.109375 7.6875 -41.109375 C 7.75 -41.109375 7.800781 -41.085938 7.84375 -41.046875 C 8.132812 -40.898438 8.304688 -40.65625 8.359375 -40.3125 C 8.421875 -39.976562 8.4375 -39.644531 8.40625 -39.3125 C 8.40625 -36.363281 8.40625 -33.40625 8.40625 -30.4375 C 8.40625 -27.46875 8.40625 -24.488281 8.40625 -21.5 C 8.40625 -20.039062 8.40625 -18.582031 8.40625 -17.125 C 8.40625 -15.675781 8.40625 -14.222656 8.40625 -12.765625 C 8.40625 -11.984375 8.382812 -11.207031 8.34375 -10.4375 C 8.300781 -9.675781 8.445312 -9.039062 8.78125 -8.53125 C 9.125 -8.03125 9.816406 -7.78125 10.859375 -7.78125 C 12.765625 -7.851562 14.671875 -7.890625 16.578125 -7.890625 C 18.484375 -7.890625 20.382812 -7.890625 22.28125 -7.890625 C 22.695312 -7.890625 23.191406 -7.914062 23.765625 -7.96875 C 24.347656 -8.03125 24.828125 -7.988281 25.203125 -7.84375 C 25.648438 -7.6875 25.945312 -7.328125 26.09375 -6.765625 C 26.238281 -6.210938 26.300781 -5.5625 26.28125 -4.8125 C 26.269531 -4.070312 26.226562 -3.363281 26.15625 -2.6875 C 26.082031 -2.019531 26.023438 -1.515625 25.984375 -1.171875 C 25.941406 -1.097656 25.921875 -1.023438 25.921875 -0.953125 C 25.921875 -0.878906 25.882812 -0.804688 25.8125 -0.734375 C 25.738281 -0.648438 25.609375 -0.570312 25.421875 -0.5 C 24.046875 -0.0507812 22.550781 0.0976562 20.9375 -0.046875 C 19.332031 -0.203125 17.820312 -0.300781 16.40625 -0.34375 C 14.65625 -0.34375 12.890625 -0.367188 11.109375 -0.421875 C 9.335938 -0.472656 7.578125 -0.5 5.828125 -0.5 C 5.304688 -0.5 4.613281 -0.460938 3.75 -0.390625 C 2.894531 -0.316406 2.117188 -0.351562 1.421875 -0.5 C 0.734375 -0.65625 0.332031 -1.085938 0.21875 -1.796875 C 0.113281 -2.691406 0.0625 -3.601562 0.0625 -4.53125 C 0.0625 -5.46875 0.0625 -6.382812 0.0625 -7.28125 C 0.0195312 -9.144531 0.015625 -10.984375 0.046875 -12.796875 C 0.0859375 -14.609375 0.09375 -16.425781 0.0625 -18.25 C 0.0625 -21.28125 0.0625 -24.296875 0.0625 -27.296875 C 0.0625 -30.304688 0.0976562 -33.320312 0.171875 -36.34375 C 0.171875 -36.976562 0.125 -37.710938 0.03125 -38.546875 C -0.0625 -39.390625 0.0546875 -40.09375 0.390625 -40.65625 C 0.722656 -41.21875 1.28125 -41.523438 2.0625 -41.578125 C 2.851562 -41.628906 3.675781 -41.597656 4.53125 -41.484375 C 5.394531 -41.378906 6.085938 -41.304688 6.609375 -41.265625 C 6.753906 -41.265625 6.898438 -41.253906 7.046875 -41.234375 C 7.203125 -41.222656 7.351562 -41.195312 7.5 -41.15625 Z M 7.5 -41.15625 "/></g></g></g><g fill="#000000" fill-opacity="1"><g transform="translate(187.246063, 193.324631)"><g><path d="M 29.234375 -28.34375 C 29.085938 -28.039062 28.925781 -27.726562 28.75 -27.40625 C 28.582031 -27.09375 28.40625 -26.785156 28.21875 -26.484375 C 27.175781 -24.734375 26.078125 -22.953125 24.921875 -21.140625 C 23.765625 -19.328125 22.960938 -17.394531 22.515625 -15.34375 C 22.097656 -13.4375 21.953125 -11.503906 22.078125 -9.546875 C 22.210938 -7.585938 22.320312 -5.617188 22.40625 -3.640625 C 22.4375 -3.148438 22.429688 -2.519531 22.390625 -1.75 C 22.359375 -0.988281 22.0625 -0.5 21.5 -0.28125 C 21.050781 -0.09375 20.484375 -0.0078125 19.796875 -0.03125 C 19.109375 -0.0507812 18.40625 -0.109375 17.6875 -0.203125 C 16.976562 -0.296875 16.382812 -0.34375 15.90625 -0.34375 C 15.644531 -0.34375 15.296875 -0.34375 14.859375 -0.34375 C 14.429688 -0.34375 14.109375 -0.429688 13.890625 -0.609375 C 13.628906 -0.878906 13.5 -1.394531 13.5 -2.15625 C 13.5 -2.914062 13.5 -3.46875 13.5 -3.8125 C 13.457031 -5 13.453125 -6.171875 13.484375 -7.328125 C 13.523438 -8.492188 13.582031 -9.65625 13.65625 -10.8125 C 13.84375 -13.082031 13.59375 -15.113281 12.90625 -16.90625 C 12.21875 -18.695312 11.5 -20.25 10.75 -21.5625 C 9.632812 -24.0625 8.289062 -26.492188 6.71875 -28.859375 C 5.15625 -31.234375 3.703125 -33.617188 2.359375 -36.015625 C 2.203125 -36.304688 1.914062 -36.710938 1.5 -37.234375 C 1.09375 -37.765625 0.726562 -38.296875 0.40625 -38.828125 C 0.09375 -39.367188 -0.0351562 -39.84375 0.015625 -40.25 C 0.078125 -40.664062 0.460938 -40.910156 1.171875 -40.984375 C 2.929688 -41.171875 4.648438 -41.066406 6.328125 -40.671875 C 8.003906 -40.285156 9.421875 -39.382812 10.578125 -37.96875 C 11.210938 -37.1875 11.6875 -36.335938 12 -35.421875 C 12.320312 -34.503906 12.726562 -33.617188 13.21875 -32.765625 C 14.226562 -30.816406 15.476562 -28.945312 16.96875 -27.15625 C 17.113281 -26.96875 17.28125 -26.820312 17.46875 -26.71875 C 17.769531 -26.5625 18.0625 -26.578125 18.34375 -26.765625 C 18.625 -26.953125 18.875 -27.160156 19.09375 -27.390625 C 19.957031 -28.359375 20.675781 -29.398438 21.25 -30.515625 C 21.832031 -31.640625 22.421875 -32.78125 23.015625 -33.9375 C 23.578125 -35.050781 24.210938 -36.148438 24.921875 -37.234375 C 25.628906 -38.316406 26.488281 -39.234375 27.5 -39.984375 C 28.539062 -40.765625 29.722656 -41.273438 31.046875 -41.515625 C 32.378906 -41.765625 33.582031 -41.570312 34.65625 -40.9375 C 34.769531 -40.863281 34.882812 -40.785156 35 -40.703125 C 35.113281 -40.628906 35.207031 -40.539062 35.28125 -40.4375 C 35.425781 -40.175781 35.453125 -39.894531 35.359375 -39.59375 C 35.265625 -39.289062 35.144531 -38.992188 35 -38.703125 C 34.0625 -36.984375 33.109375 -35.265625 32.140625 -33.546875 C 31.171875 -31.828125 30.203125 -30.09375 29.234375 -28.34375 Z M 29.234375 -28.34375 "/></g></g></g><g fill="#000000" fill-opacity="1"><g transform="translate(222.800324, 193.324631)"><g><path d="M 31.921875 -34.546875 C 31.546875 -34.171875 31.019531 -34.03125 30.34375 -34.125 C 29.675781 -34.21875 29.082031 -34.265625 28.5625 -34.265625 C 27.476562 -34.265625 26.394531 -34.265625 25.3125 -34.265625 C 24.226562 -34.265625 23.144531 -34.265625 22.0625 -34.265625 C 21.539062 -34.265625 21.175781 -34.085938 20.96875 -33.734375 C 20.757812 -33.378906 20.644531 -32.957031 20.625 -32.46875 C 20.613281 -31.988281 20.609375 -31.5625 20.609375 -31.1875 C 20.609375 -26.257812 20.609375 -21.34375 20.609375 -16.4375 C 20.609375 -11.53125 20.625 -6.613281 20.65625 -1.6875 C 20.65625 -1.082031 20.5 -0.6875 20.1875 -0.5 C 19.875 -0.3125 19.4375 -0.238281 18.875 -0.28125 C 18.269531 -0.320312 17.660156 -0.347656 17.046875 -0.359375 C 16.429688 -0.378906 15.804688 -0.375 15.171875 -0.34375 C 14.765625 -0.34375 14.28125 -0.253906 13.71875 -0.078125 C 13.15625 0.0859375 12.6875 0 12.3125 -0.34375 C 12.019531 -0.632812 11.875 -1.113281 11.875 -1.78125 C 11.875 -2.457031 11.875 -2.984375 11.875 -3.359375 C 11.875 -6.117188 11.878906 -8.878906 11.890625 -11.640625 C 11.910156 -14.410156 11.921875 -17.15625 11.921875 -19.875 C 11.921875 -21.300781 11.921875 -22.710938 11.921875 -24.109375 C 11.921875 -25.503906 11.90625 -26.894531 11.875 -28.28125 C 11.875 -28.65625 11.910156 -29.160156 11.984375 -29.796875 C 12.054688 -30.429688 12.082031 -31.070312 12.0625 -31.71875 C 12.050781 -32.375 11.929688 -32.9375 11.703125 -33.40625 C 11.484375 -33.875 11.070312 -34.109375 10.46875 -34.109375 C 8.976562 -34.109375 7.492188 -34.097656 6.015625 -34.078125 C 4.546875 -34.054688 3.0625 -34.023438 1.5625 -33.984375 C 1.375 -33.984375 1.164062 -33.992188 0.9375 -34.015625 C 0.71875 -34.035156 0.535156 -34.117188 0.390625 -34.265625 C 0.242188 -34.421875 0.148438 -34.597656 0.109375 -34.796875 C 0.078125 -35.003906 0.0625 -35.203125 0.0625 -35.390625 C 0.0195312 -36.253906 0 -37.101562 0 -37.9375 C 0 -38.78125 0 -39.613281 0 -40.4375 C 0 -40.582031 0.0078125 -40.726562 0.03125 -40.875 C 0.0507812 -41.03125 0.113281 -41.160156 0.21875 -41.265625 C 0.375 -41.421875 0.546875 -41.515625 0.734375 -41.546875 C 0.921875 -41.585938 1.101562 -41.609375 1.28125 -41.609375 C 6.175781 -41.492188 11.050781 -41.4375 15.90625 -41.4375 C 20.757812 -41.4375 25.613281 -41.472656 30.46875 -41.546875 C 30.726562 -41.546875 30.988281 -41.535156 31.25 -41.515625 C 31.507812 -41.503906 31.734375 -41.40625 31.921875 -41.21875 C 32.109375 -41.03125 32.226562 -40.796875 32.28125 -40.515625 C 32.34375 -40.234375 32.390625 -39.960938 32.421875 -39.703125 C 32.421875 -39.253906 32.429688 -38.804688 32.453125 -38.359375 C 32.472656 -37.910156 32.484375 -37.460938 32.484375 -37.015625 C 32.515625 -36.640625 32.519531 -36.273438 32.5 -35.921875 C 32.488281 -35.566406 32.390625 -35.238281 32.203125 -34.9375 C 32.160156 -34.832031 32.066406 -34.703125 31.921875 -34.546875 Z M 31.921875 -34.546875 "/></g></g></g><g fill="#000000" fill-opacity="1"><g transform="translate(255.443003, 193.324631)"><g><path d="M 1.90625 -41.546875 C 1.9375 -41.546875 1.972656 -41.546875 2.015625 -41.546875 C 2.054688 -41.546875 2.09375 -41.546875 2.125 -41.546875 C 3.0625 -41.546875 3.976562 -41.535156 4.875 -41.515625 C 5.769531 -41.503906 6.679688 -41.476562 7.609375 -41.4375 C 8.285156 -41.40625 8.625 -41.144531 8.625 -40.65625 C 8.625 -40.164062 8.625 -39.660156 8.625 -39.140625 C 8.625 -35.929688 8.625 -32.703125 8.625 -29.453125 C 8.625 -26.203125 8.625 -22.972656 8.625 -19.765625 C 8.625 -18.234375 8.613281 -16.691406 8.59375 -15.140625 C 8.570312 -13.597656 8.5625 -12.0625 8.5625 -10.53125 C 8.5625 -9.113281 8.644531 -7.6875 8.8125 -6.25 C 8.988281 -4.8125 8.984375 -3.363281 8.796875 -1.90625 C 8.679688 -1.195312 8.4375 -0.738281 8.0625 -0.53125 C 7.6875 -0.320312 7.144531 -0.179688 6.4375 -0.109375 C 6.101562 -0.078125 5.585938 -0.0507812 4.890625 -0.03125 C 4.203125 -0.0078125 3.484375 -0.046875 2.734375 -0.140625 C 1.992188 -0.234375 1.351562 -0.421875 0.8125 -0.703125 C 0.269531 -0.984375 0 -1.382812 0 -1.90625 C 0 -8.175781 0.0078125 -14.445312 0.03125 -20.71875 C 0.0507812 -26.988281 0.0390625 -33.257812 0 -39.53125 C 0 -40.28125 0.140625 -40.796875 0.421875 -41.078125 C 0.703125 -41.359375 1.195312 -41.515625 1.90625 -41.546875 Z M 1.90625 -41.546875 "/></g></g></g><g fill="#000000" fill-opacity="1"><g transform="translate(264.512972, 193.324631)"><g><path d="M 24.03125 -2.015625 C 23.5 -2.648438 23.019531 -3.320312 22.59375 -4.03125 C 22.164062 -4.738281 21.707031 -5.429688 21.21875 -6.109375 C 20.175781 -7.523438 19.128906 -8.941406 18.078125 -10.359375 C 17.035156 -11.773438 15.992188 -13.175781 14.953125 -14.5625 C 14.429688 -15.3125 13.890625 -15.6875 13.328125 -15.6875 C 12.765625 -15.6875 12.226562 -15.460938 11.71875 -15.015625 C 11.21875 -14.566406 10.78125 -14.023438 10.40625 -13.390625 C 10.039062 -12.753906 9.742188 -12.15625 9.515625 -11.59375 C 9.035156 -10.394531 8.765625 -9.132812 8.703125 -7.8125 C 8.648438 -6.488281 8.679688 -5.191406 8.796875 -3.921875 C 8.867188 -3.210938 8.867188 -2.492188 8.796875 -1.765625 C 8.722656 -1.035156 8.238281 -0.632812 7.34375 -0.5625 C 6.925781 -0.5625 6.492188 -0.566406 6.046875 -0.578125 C 5.597656 -0.597656 5.171875 -0.609375 4.765625 -0.609375 C 4.203125 -0.609375 3.554688 -0.5625 2.828125 -0.46875 C 2.097656 -0.382812 1.472656 -0.414062 0.953125 -0.5625 C 0.242188 -0.75 -0.0703125 -1.117188 0 -1.671875 C 0.0703125 -2.234375 0.109375 -2.851562 0.109375 -3.53125 C 0.109375 -4.757812 0.109375 -5.988281 0.109375 -7.21875 C 0.109375 -8.457031 0.09375 -9.671875 0.0625 -10.859375 C 0.0625 -15.785156 0.0625 -20.703125 0.0625 -25.609375 C 0.0625 -30.523438 0.078125 -35.425781 0.109375 -40.3125 C 0.109375 -40.757812 0.296875 -41.066406 0.671875 -41.234375 C 1.046875 -41.410156 1.460938 -41.515625 1.921875 -41.546875 C 2.390625 -41.585938 2.773438 -41.585938 3.078125 -41.546875 C 3.566406 -41.515625 4.035156 -41.457031 4.484375 -41.375 C 4.929688 -41.300781 5.394531 -41.25 5.875 -41.21875 C 6.101562 -41.21875 6.328125 -41.222656 6.546875 -41.234375 C 6.773438 -41.253906 6.984375 -41.226562 7.171875 -41.15625 C 7.460938 -41.125 7.757812 -40.972656 8.0625 -40.703125 C 8.363281 -40.441406 8.53125 -40.144531 8.5625 -39.8125 C 8.71875 -38.019531 8.820312 -36.238281 8.875 -34.46875 C 8.925781 -32.695312 9.066406 -30.914062 9.296875 -29.125 C 9.367188 -28.632812 9.507812 -28.132812 9.71875 -27.625 C 9.925781 -27.125 10.328125 -26.875 10.921875 -26.875 C 11.296875 -26.875 11.628906 -27.023438 11.921875 -27.328125 C 12.335938 -27.734375 12.75 -28.140625 13.15625 -28.546875 C 13.570312 -28.960938 13.96875 -29.359375 14.34375 -29.734375 C 15.3125 -30.628906 16.242188 -31.550781 17.140625 -32.5 C 18.035156 -33.457031 18.835938 -34.492188 19.546875 -35.609375 C 20.847656 -37.703125 22.394531 -39.207031 24.1875 -40.125 C 25.976562 -41.039062 28.273438 -41.5 31.078125 -41.5 C 31.828125 -41.5 32.554688 -41.476562 33.265625 -41.4375 C 33.972656 -41.40625 34.410156 -41.21875 34.578125 -40.875 C 34.742188 -40.539062 34.398438 -39.890625 33.546875 -38.921875 C 31.597656 -36.753906 29.65625 -34.585938 27.71875 -32.421875 C 25.78125 -30.253906 23.820312 -28.128906 21.84375 -26.046875 C 21.050781 -25.222656 20.585938 -24.4375 20.453125 -23.6875 C 20.328125 -22.9375 20.40625 -22.222656 20.6875 -21.546875 C 20.96875 -20.878906 21.316406 -20.25 21.734375 -19.65625 C 23.742188 -16.925781 25.765625 -14.195312 27.796875 -11.46875 C 29.835938 -8.75 31.847656 -6.007812 33.828125 -3.25 C 34.203125 -2.757812 34.5 -2.269531 34.71875 -1.78125 C 34.945312 -1.300781 34.96875 -0.898438 34.78125 -0.578125 C 34.59375 -0.265625 34.066406 -0.09375 33.203125 -0.0625 C 32.535156 -0.0195312 31.863281 -0.046875 31.1875 -0.140625 C 30.519531 -0.234375 29.832031 -0.28125 29.125 -0.28125 C 28.257812 -0.28125 27.453125 -0.296875 26.703125 -0.328125 C 25.960938 -0.367188 25.253906 -0.726562 24.578125 -1.40625 C 24.316406 -1.664062 24.132812 -1.867188 24.03125 -2.015625 Z M 24.03125 -2.015625 "/></g></g></g><g fill="#000000" fill-opacity="1"><g transform="translate(299.507309, 193.324631)"><g><path d="M 19.265625 -0.171875 C 18.773438 -0.128906 18.285156 -0.0976562 17.796875 -0.078125 C 17.316406 -0.0664062 16.835938 -0.0625 16.359375 -0.0625 C 13.554688 -0.09375 10.800781 -0.566406 8.09375 -1.484375 C 5.382812 -2.398438 2.984375 -3.8125 0.890625 -5.71875 C 0.742188 -5.863281 0.554688 -6.046875 0.328125 -6.265625 C 0.109375 -6.492188 0.0195312 -6.738281 0.0625 -7 C 0.09375 -7.113281 0.144531 -7.21875 0.21875 -7.3125 C 0.300781 -7.40625 0.359375 -7.488281 0.390625 -7.5625 C 0.804688 -8.007812 1.195312 -8.445312 1.5625 -8.875 C 1.9375 -9.300781 2.3125 -9.738281 2.6875 -10.1875 C 2.988281 -10.53125 3.273438 -10.914062 3.546875 -11.34375 C 3.828125 -11.769531 4.210938 -12.003906 4.703125 -12.046875 C 5.035156 -12.046875 5.351562 -11.953125 5.65625 -11.765625 C 6.851562 -11.234375 8.035156 -10.640625 9.203125 -9.984375 C 10.378906 -9.335938 11.570312 -8.769531 12.78125 -8.28125 C 14 -7.800781 15.242188 -7.550781 16.515625 -7.53125 C 17.785156 -7.507812 19.078125 -7.851562 20.390625 -8.5625 C 20.753906 -8.75 21.101562 -8.984375 21.4375 -9.265625 C 21.78125 -9.546875 22.046875 -9.851562 22.234375 -10.1875 C 22.679688 -11.007812 22.789062 -11.753906 22.5625 -12.421875 C 22.34375 -13.097656 21.925781 -13.707031 21.3125 -14.25 C 20.695312 -14.789062 20.015625 -15.253906 19.265625 -15.640625 C 18.515625 -16.035156 17.859375 -16.347656 17.296875 -16.578125 C 16.066406 -17.097656 14.816406 -17.535156 13.546875 -17.890625 C 12.273438 -18.242188 11.007812 -18.628906 9.75 -19.046875 C 8.507812 -19.453125 7.3125 -19.953125 6.15625 -20.546875 C 5 -21.148438 4.03125 -21.972656 3.25 -23.015625 C 2.207031 -24.359375 1.597656 -25.914062 1.421875 -27.6875 C 1.253906 -29.46875 1.359375 -31.160156 1.734375 -32.765625 C 2.035156 -34.253906 2.640625 -35.566406 3.546875 -36.703125 C 4.460938 -37.847656 5.578125 -38.773438 6.890625 -39.484375 C 9.316406 -40.898438 12.265625 -41.609375 15.734375 -41.609375 C 17.191406 -41.609375 18.640625 -41.476562 20.078125 -41.21875 C 21.515625 -40.957031 22.921875 -40.582031 24.296875 -40.09375 C 25.046875 -39.832031 25.8125 -39.539062 26.59375 -39.21875 C 27.382812 -38.90625 28.054688 -38.535156 28.609375 -38.109375 C 29.171875 -37.679688 29.523438 -37.128906 29.671875 -36.453125 C 29.828125 -35.785156 29.644531 -34.960938 29.125 -33.984375 C 28.96875 -33.617188 28.773438 -33.265625 28.546875 -32.921875 C 28.328125 -32.585938 28.109375 -32.269531 27.890625 -31.96875 C 27.703125 -31.601562 27.476562 -31.34375 27.21875 -31.1875 C 26.769531 -30.894531 26.289062 -30.878906 25.78125 -31.140625 C 25.28125 -31.398438 24.84375 -31.640625 24.46875 -31.859375 C 23.125 -32.722656 21.695312 -33.378906 20.1875 -33.828125 C 18.675781 -34.273438 17.117188 -34.40625 15.515625 -34.21875 C 14.460938 -34.101562 13.488281 -33.773438 12.59375 -33.234375 C 11.695312 -32.691406 11.109375 -32 10.828125 -31.15625 C 10.554688 -30.320312 10.828125 -29.363281 11.640625 -28.28125 C 12.535156 -27.125 13.664062 -26.242188 15.03125 -25.640625 C 16.394531 -25.046875 17.820312 -24.570312 19.3125 -24.21875 C 20.8125 -23.863281 22.195312 -23.425781 23.46875 -22.90625 C 24.4375 -22.53125 25.394531 -22.085938 26.34375 -21.578125 C 27.300781 -21.078125 28.148438 -20.457031 28.890625 -19.71875 C 29.941406 -18.707031 30.679688 -17.472656 31.109375 -16.015625 C 31.535156 -14.554688 31.710938 -13.0625 31.640625 -11.53125 C 31.566406 -10 31.25 -8.582031 30.6875 -7.28125 C 30.050781 -5.789062 29.125 -4.539062 27.90625 -3.53125 C 26.695312 -2.519531 25.34375 -1.742188 23.84375 -1.203125 C 22.351562 -0.660156 20.828125 -0.316406 19.265625 -0.171875 Z M 19.265625 -0.171875 "/></g></g></g><g clip-path="url(#dc3828ad26)"><g clip-path="url(#c24f798a72)"><g transform="matrix(1, 0, 0, 1, 41, 136)"><g clip-path="url(#0888ee5cc1)"><g clip-path="url(#3941076190)"><g clip-path="url(#833f508cb4)"><path fill="#1b1b1b" d="M 0.238281 0.691406 L 15.386719 0.691406 L 15.386719 15.839844 L 0.238281 15.839844 Z M 0.238281 0.691406 " fill-opacity="1" fill-rule="nonzero"/></g></g></g></g></g></g><g fill="#000000" fill-opacity="1"><g transform="translate(37.500002, 208.947951)"><g><path d="M 2.140625 -7.609375 C 2.734375 -7.609375 3.15625 -7.46875 3.40625 -7.1875 C 3.664062 -6.90625 3.796875 -6.484375 3.796875 -5.921875 L 3.796875 -5.5625 C 3.796875 -5.15625 3.726562 -4.828125 3.59375 -4.578125 C 3.46875 -4.328125 3.238281 -4.148438 2.90625 -4.046875 C 3.269531 -3.953125 3.53125 -3.757812 3.6875 -3.46875 C 3.84375 -3.1875 3.921875 -2.835938 3.921875 -2.421875 L 3.921875 -1.78125 C 3.921875 -1.207031 3.78125 -0.765625 3.5 -0.453125 C 3.21875 -0.148438 2.78125 0 2.1875 0 L 0.4375 0 L 0.4375 -7.609375 Z M 1.9375 -4.375 C 2.269531 -4.375 2.519531 -4.441406 2.6875 -4.578125 C 2.863281 -4.710938 2.953125 -4.984375 2.953125 -5.390625 L 2.953125 -5.828125 C 2.953125 -6.171875 2.890625 -6.421875 2.765625 -6.578125 C 2.640625 -6.742188 2.425781 -6.828125 2.125 -6.828125 L 1.28125 -6.828125 L 1.28125 -4.375 Z M 2.1875 -0.765625 C 2.78125 -0.765625 3.078125 -1.109375 3.078125 -1.796875 L 3.078125 -2.46875 C 3.078125 -2.894531 2.992188 -3.191406 2.828125 -3.359375 C 2.660156 -3.523438 2.390625 -3.609375 2.015625 -3.609375 L 1.28125 -3.609375 L 1.28125 -0.765625 Z M 2.1875 -0.765625 "/></g></g></g><g fill="#000000" fill-opacity="1"><g transform="translate(41.753794, 208.947951)"><g><path d="M 2.125 -7.609375 C 2.726562 -7.609375 3.160156 -7.457031 3.421875 -7.15625 C 3.691406 -6.863281 3.828125 -6.429688 3.828125 -5.859375 L 3.828125 -5.25 C 3.828125 -4.820312 3.75 -4.476562 3.59375 -4.21875 C 3.4375 -3.957031 3.195312 -3.78125 2.875 -3.6875 C 3.226562 -3.582031 3.472656 -3.394531 3.609375 -3.125 C 3.753906 -2.851562 3.828125 -2.507812 3.828125 -2.09375 L 3.828125 -0.90625 C 3.828125 -0.738281 3.832031 -0.578125 3.84375 -0.421875 C 3.863281 -0.273438 3.910156 -0.132812 3.984375 0 L 3.125 0 C 3.070312 -0.101562 3.035156 -0.21875 3.015625 -0.34375 C 2.992188 -0.476562 2.984375 -0.671875 2.984375 -0.921875 L 2.984375 -2.125 C 2.984375 -2.550781 2.882812 -2.84375 2.6875 -3 C 2.5 -3.164062 2.226562 -3.25 1.875 -3.25 L 1.28125 -3.25 L 1.28125 0 L 0.4375 0 L 0.4375 -7.609375 Z M 1.90625 -4.015625 C 2.25 -4.015625 2.515625 -4.082031 2.703125 -4.21875 C 2.890625 -4.363281 2.984375 -4.644531 2.984375 -5.0625 L 2.984375 -5.78125 C 2.984375 -6.132812 2.914062 -6.394531 2.78125 -6.5625 C 2.644531 -6.738281 2.421875 -6.828125 2.109375 -6.828125 L 1.28125 -6.828125 L 1.28125 -4.015625 Z M 1.90625 -4.015625 "/></g></g></g><g fill="#000000" fill-opacity="1"><g transform="translate(46.029283, 208.947951)"><g><path d="M 1.296875 -1.53125 L 1 0 L 0.21875 0 L 1.671875 -7.609375 L 2.90625 -7.609375 L 4.359375 0 L 3.5 0 L 3.21875 -1.53125 Z M 1.40625 -2.265625 L 3.09375 -2.265625 L 2.234375 -6.640625 Z M 1.40625 -2.265625 "/></g></g></g><g fill="#000000" fill-opacity="1"><g transform="translate(50.608613, 208.947951)"><g><path d="M 2.03125 -7.671875 C 2.613281 -7.671875 3.039062 -7.5 3.3125 -7.15625 C 3.582031 -6.8125 3.71875 -6.351562 3.71875 -5.78125 L 3.71875 -5.578125 L 2.921875 -5.578125 L 2.921875 -5.828125 C 2.921875 -6.171875 2.851562 -6.4375 2.71875 -6.625 C 2.582031 -6.8125 2.359375 -6.90625 2.046875 -6.90625 C 1.742188 -6.90625 1.523438 -6.8125 1.390625 -6.625 C 1.253906 -6.4375 1.1875 -6.171875 1.1875 -5.828125 C 1.1875 -5.546875 1.25 -5.300781 1.375 -5.09375 C 1.5 -4.882812 1.65625 -4.691406 1.84375 -4.515625 C 2.03125 -4.335938 2.234375 -4.160156 2.453125 -3.984375 C 2.679688 -3.816406 2.890625 -3.628906 3.078125 -3.421875 C 3.265625 -3.222656 3.421875 -2.992188 3.546875 -2.734375 C 3.671875 -2.484375 3.734375 -2.179688 3.734375 -1.828125 C 3.734375 -1.242188 3.59375 -0.78125 3.3125 -0.4375 C 3.039062 -0.09375 2.609375 0.078125 2.015625 0.078125 C 1.429688 0.078125 1 -0.09375 0.71875 -0.4375 C 0.445312 -0.78125 0.3125 -1.242188 0.3125 -1.828125 L 0.3125 -2.265625 L 1.109375 -2.265625 L 1.109375 -1.78125 C 1.109375 -1.4375 1.179688 -1.164062 1.328125 -0.96875 C 1.472656 -0.78125 1.695312 -0.6875 2 -0.6875 C 2.300781 -0.6875 2.523438 -0.78125 2.671875 -0.96875 C 2.816406 -1.164062 2.890625 -1.4375 2.890625 -1.78125 C 2.890625 -2.0625 2.828125 -2.304688 2.703125 -2.515625 C 2.578125 -2.722656 2.414062 -2.914062 2.21875 -3.09375 C 2.03125 -3.269531 1.828125 -3.441406 1.609375 -3.609375 C 1.398438 -3.773438 1.203125 -3.957031 1.015625 -4.15625 C 0.828125 -4.363281 0.664062 -4.597656 0.53125 -4.859375 C 0.40625 -5.117188 0.34375 -5.425781 0.34375 -5.78125 C 0.34375 -6.363281 0.476562 -6.820312 0.75 -7.15625 C 1.03125 -7.5 1.457031 -7.671875 2.03125 -7.671875 Z M 2.03125 -7.671875 "/></g></g></g><g fill="#000000" fill-opacity="1"><g transform="translate(54.645368, 208.947951)"><g><path d="M 1.28125 -7.609375 L 1.28125 0 L 0.4375 0 L 0.4375 -7.609375 Z M 1.28125 -7.609375 "/></g></g></g><g fill="#000000" fill-opacity="1"><g transform="translate(56.35991, 208.947951)"><g><path d="M 0.4375 0 L 0.4375 -7.609375 L 1.28125 -7.609375 L 1.28125 -0.765625 L 3.453125 -0.765625 L 3.453125 0 Z M 0.4375 0 "/></g></g></g><g fill="#000000" fill-opacity="1"><g transform="translate(37.500002, 217.719831)"><g><path d="M 1.828125 -6.5625 C 2.335938 -6.5625 2.707031 -6.410156 2.9375 -6.109375 C 3.175781 -5.816406 3.296875 -5.421875 3.296875 -4.921875 C 3.296875 -4.585938 3.238281 -4.289062 3.125 -4.03125 C 3.019531 -3.769531 2.882812 -3.523438 2.71875 -3.296875 C 2.5625 -3.066406 2.382812 -2.851562 2.1875 -2.65625 C 2 -2.457031 1.820312 -2.257812 1.65625 -2.0625 C 1.5 -1.863281 1.363281 -1.65625 1.25 -1.4375 C 1.132812 -1.226562 1.078125 -1.003906 1.078125 -0.765625 L 1.078125 -0.65625 L 3.21875 -0.65625 L 3.21875 0 L 0.375 0 L 0.375 -0.5625 C 0.375 -0.90625 0.425781 -1.207031 0.53125 -1.46875 C 0.644531 -1.738281 0.78125 -1.984375 0.9375 -2.203125 C 1.101562 -2.421875 1.28125 -2.628906 1.46875 -2.828125 C 1.65625 -3.023438 1.832031 -3.222656 2 -3.421875 C 2.164062 -3.628906 2.300781 -3.847656 2.40625 -4.078125 C 2.519531 -4.316406 2.578125 -4.585938 2.578125 -4.890625 C 2.578125 -5.222656 2.515625 -5.472656 2.390625 -5.640625 C 2.273438 -5.816406 2.082031 -5.90625 1.8125 -5.90625 C 1.539062 -5.90625 1.34375 -5.816406 1.21875 -5.640625 C 1.101562 -5.472656 1.046875 -5.242188 1.046875 -4.953125 L 1.046875 -4.375 L 0.375 -4.375 L 0.375 -4.90625 C 0.375 -5.40625 0.488281 -5.804688 0.71875 -6.109375 C 0.957031 -6.410156 1.328125 -6.5625 1.828125 -6.5625 Z M 1.828125 -6.5625 "/></g></g></g><g fill="#000000" fill-opacity="1"><g transform="translate(41.087313, 217.719831)"><g><path d="M 0.3125 -4.921875 C 0.3125 -5.429688 0.429688 -5.832031 0.671875 -6.125 C 0.921875 -6.414062 1.296875 -6.5625 1.796875 -6.5625 C 2.296875 -6.5625 2.671875 -6.414062 2.921875 -6.125 C 3.171875 -5.832031 3.296875 -5.429688 3.296875 -4.921875 L 3.296875 -1.578125 C 3.296875 -1.078125 3.171875 -0.675781 2.921875 -0.375 C 2.671875 -0.0820312 2.296875 0.0625 1.796875 0.0625 C 1.296875 0.0625 0.921875 -0.0820312 0.671875 -0.375 C 0.429688 -0.675781 0.3125 -1.078125 0.3125 -1.578125 Z M 1.03125 -1.53125 C 1.03125 -1.226562 1.09375 -0.992188 1.21875 -0.828125 C 1.34375 -0.671875 1.535156 -0.59375 1.796875 -0.59375 C 2.066406 -0.59375 2.265625 -0.671875 2.390625 -0.828125 C 2.515625 -0.992188 2.578125 -1.226562 2.578125 -1.53125 L 2.578125 -4.96875 C 2.578125 -5.257812 2.515625 -5.488281 2.390625 -5.65625 C 2.265625 -5.820312 2.066406 -5.90625 1.796875 -5.90625 C 1.535156 -5.90625 1.34375 -5.820312 1.21875 -5.65625 C 1.09375 -5.488281 1.03125 -5.257812 1.03125 -4.96875 Z M 1.03125 -1.53125 "/></g></g></g><g fill="#000000" fill-opacity="1"><g transform="translate(44.693163, 217.719831)"><g><path d="M 1.828125 -6.5625 C 2.335938 -6.5625 2.707031 -6.410156 2.9375 -6.109375 C 3.175781 -5.816406 3.296875 -5.421875 3.296875 -4.921875 C 3.296875 -4.585938 3.238281 -4.289062 3.125 -4.03125 C 3.019531 -3.769531 2.882812 -3.523438 2.71875 -3.296875 C 2.5625 -3.066406 2.382812 -2.851562 2.1875 -2.65625 C 2 -2.457031 1.820312 -2.257812 1.65625 -2.0625 C 1.5 -1.863281 1.363281 -1.65625 1.25 -1.4375 C 1.132812 -1.226562 1.078125 -1.003906 1.078125 -0.765625 L 1.078125 -0.65625 L 3.21875 -0.65625 L 3.21875 0 L 0.375 0 L 0.375 -0.5625 C 0.375 -0.90625 0.425781 -1.207031 0.53125 -1.46875 C 0.644531 -1.738281 0.78125 -1.984375 0.9375 -2.203125 C 1.101562 -2.421875 1.28125 -2.628906 1.46875 -2.828125 C 1.65625 -3.023438 1.832031 -3.222656 2 -3.421875 C 2.164062 -3.628906 2.300781 -3.847656 2.40625 -4.078125 C 2.519531 -4.316406 2.578125 -4.585938 2.578125 -4.890625 C 2.578125 -5.222656 2.515625 -5.472656 2.390625 -5.640625 C 2.273438 -5.816406 2.082031 -5.90625 1.8125 -5.90625 C 1.539062 -5.90625 1.34375 -5.816406 1.21875 -5.640625 C 1.101562 -5.472656 1.046875 -5.242188 1.046875 -4.953125 L 1.046875 -4.375 L 0.375 -4.375 L 0.375 -4.90625 C 0.375 -5.40625 0.488281 -5.804688 0.71875 -6.109375 C 0.957031 -6.410156 1.328125 -6.5625 1.828125 -6.5625 Z M 1.828125 -6.5625 "/></g></g></g><g fill="#000000" fill-opacity="1"><g transform="translate(48.280473, 217.719831)"><g><path d="M 1.09375 -3.859375 C 1.300781 -4.210938 1.625 -4.390625 2.0625 -4.390625 C 2.476562 -4.390625 2.78125 -4.25 2.96875 -3.96875 C 3.164062 -3.6875 3.265625 -3.3125 3.265625 -2.84375 L 3.265625 -1.578125 C 3.265625 -1.078125 3.144531 -0.675781 2.90625 -0.375 C 2.664062 -0.0820312 2.296875 0.0625 1.796875 0.0625 C 1.304688 0.0625 0.941406 -0.0820312 0.703125 -0.375 C 0.460938 -0.675781 0.34375 -1.078125 0.34375 -1.578125 L 0.34375 -2.015625 L 1.015625 -2.015625 L 1.015625 -1.53125 C 1.015625 -1.226562 1.078125 -0.992188 1.203125 -0.828125 C 1.328125 -0.671875 1.519531 -0.59375 1.78125 -0.59375 C 2.039062 -0.59375 2.234375 -0.671875 2.359375 -0.828125 C 2.484375 -0.992188 2.546875 -1.226562 2.546875 -1.53125 L 2.546875 -2.796875 C 2.546875 -3.085938 2.484375 -3.316406 2.359375 -3.484375 C 2.234375 -3.648438 2.039062 -3.734375 1.78125 -3.734375 C 1.582031 -3.734375 1.414062 -3.675781 1.28125 -3.5625 C 1.15625 -3.445312 1.078125 -3.269531 1.046875 -3.03125 L 1.046875 -2.890625 L 0.375 -2.890625 L 0.546875 -6.5 L 3.109375 -6.5 L 3.109375 -5.84375 L 1.203125 -5.84375 Z M 1.09375 -3.859375 "/></g></g></g><g clip-path="url(#9bff0a00f3)"><g clip-path="url(#9deba469d5)"><g transform="matrix(1, 0, 0, 1, 56, 136)"><g clip-path="url(#b80d676699)"><g clip-path="url(#27bb867940)"><g clip-path="url(#a9ff7868d9)"><path fill="#1b1b1b" d="M 0.386719 0.691406 L 15.539062 0.691406 L 15.539062 15.839844 L 0.386719 15.839844 Z M 0.386719 0.691406 " fill-opacity="1" fill-rule="nonzero"/></g></g></g></g></g></g></svg>